<?xml version="1.0" encoding="UTF-8" standalone="no"?>
<!DOCTYPE svg PUBLIC "-//W3C//DTD SVG 1.1//EN"
 "http://www.w3.org/Graphics/SVG/1.1/DTD/svg11.dtd">
<!-- Generated by graphviz version 7.1.0 (0)
 -->
<!-- Title: G Pages: 1 -->
<svg width="432pt" height="287pt"
 viewBox="0.00 0.00 432.00 287.39" xmlns="http://www.w3.org/2000/svg" xmlns:xlink="http://www.w3.org/1999/xlink">
<g id="graph0" class="graph" transform="scale(0.199578 0.199578) rotate(0) translate(4 1436)">
<title>G</title>
<polygon fill="white" stroke="none" points="-4,4 -4,-1436 2160.57,-1436 2160.57,4 -4,4"/>
<g id="clust1" class="cluster">
<title>cluster_0</title>
<polygon fill="#000000" fill-opacity="0.058824" stroke="#000000" stroke-opacity="0.058824" points="101.8,-20.17 101.8,-1411.83 2140.8,-1411.83 2140.8,-20.17 101.8,-20.17"/>
<text text-anchor="middle" x="1121.3" y="-1396.63" font-family="Times,serif" font-size="14.00">Mafoc</text>
</g>
<g id="clust2" class="cluster">
<title>cluster_1</title>
<polygon fill="#000000" fill-opacity="0.058824" stroke="#000000" stroke-opacity="0.058824" points="301.8,-955.51 301.8,-1144.59 697.8,-1144.59 697.8,-955.51 301.8,-955.51"/>
<text text-anchor="middle" x="499.8" y="-1129.39" font-family="Times,serif" font-size="14.00">Cmds</text>
</g>
<g id="clust3" class="cluster">
<title>cluster_2</title>
<polygon fill="#000000" fill-opacity="0.058824" stroke="#000000" stroke-opacity="0.058824" points="705.8,-955.51 705.8,-1333.68 1646.8,-1333.68 1646.8,-955.51 705.8,-955.51"/>
<text text-anchor="middle" x="1176.3" y="-1318.48" font-family="Times,serif" font-size="14.00">Indexers</text>
</g>
<g id="clust4" class="cluster">
<title>cluster_3</title>
<polygon fill="#000000" fill-opacity="0.058824" stroke="#000000" stroke-opacity="0.058824" points="923.8,-40.34 923.8,-592.46 1053.8,-592.46 1053.8,-40.34 923.8,-40.34"/>
<text text-anchor="middle" x="988.8" y="-577.26" font-family="Times,serif" font-size="14.00">Upstream</text>
</g>
<!-- u30 -->
<g id="node1" class="node">
<title>u30</title>
<ellipse fill="#bbffbb" stroke="black" stroke-width="0" cx="46.8" cy="-1210.17" rx="46.59" ry="18"/>
<text text-anchor="middle" x="46.8" y="-1206.47" font-family="Times,serif" font-size="14.00">Prelude</text>
</g>
<!-- u0 -->
<g id="node2" class="node">
<title>u0</title>
<ellipse fill="#ffffbb" stroke="black" stroke-width="0" cx="482.8" cy="-469.17" rx="100.98" ry="18"/>
<text text-anchor="middle" x="482.8" y="-465.47" font-family="Times,serif" font-size="14.00">RollbackRingBuffer</text>
</g>
<!-- u20 -->
<g id="node7" class="node">
<title>u20</title>
<ellipse fill="#ffffbb" stroke="black" stroke-width="0" cx="482.8" cy="-287.17" rx="61.19" ry="18"/>
<text text-anchor="middle" x="482.8" y="-283.47" font-family="Times,serif" font-size="14.00">RingBuffer</text>
</g>
<!-- u0&#45;&gt;u20 -->
<g id="edge2" class="edge">
<title>u0&#45;&gt;u20</title>
<path fill="none" stroke="black" d="M482.8,-451.24C482.8,-420.2 482.8,-353.93 482.8,-316.12"/>
<polygon fill="black" stroke="black" points="486.3,-316.44 482.8,-306.44 479.3,-316.44 486.3,-316.44"/>
</g>
<!-- u18 -->
<g id="node29" class="node">
<title>u18</title>
<ellipse fill="#ffffbb" stroke="black" stroke-width="2" cx="988.8" cy="-287.17" rx="57.39" ry="18"/>
<text text-anchor="middle" x="988.8" y="-283.47" font-family="Times,serif" font-size="14.00">Upstream</text>
</g>
<!-- u0&#45;&gt;u18 -->
<g id="edge1" class="edge">
<title>u0&#45;&gt;u18</title>
<path fill="none" stroke="black" d="M525.5,-452.98C619.33,-419.6 842.92,-340.06 941.14,-305.12"/>
<polygon fill="black" stroke="black" points="942.25,-308.44 950.5,-301.79 939.9,-301.85 942.25,-308.44"/>
</g>
<!-- u13 -->
<g id="node3" class="node">
<title>u13</title>
<ellipse fill="#ffffbb" stroke="black" stroke-width="0" cx="761.8" cy="-469.17" rx="48.19" ry="18"/>
<text text-anchor="middle" x="761.8" y="-465.47" font-family="Times,serif" font-size="14.00">Logging</text>
</g>
<!-- u24 -->
<g id="node9" class="node">
<title>u24</title>
<ellipse fill="#ffffbb" stroke="black" stroke-width="0" cx="812.8" cy="-106.17" rx="61.99" ry="18"/>
<text text-anchor="middle" x="812.8" y="-102.47" font-family="Times,serif" font-size="14.00">Exceptions</text>
</g>
<!-- u13&#45;&gt;u24 -->
<g id="edge53" class="edge">
<title>u13&#45;&gt;u24</title>
<path fill="none" stroke="black" d="M764.19,-451.24C772.29,-393.92 798.73,-206.73 808.83,-135.26"/>
<polygon fill="black" stroke="black" points="812.26,-135.95 810.2,-125.56 805.33,-134.97 812.26,-135.95"/>
</g>
<!-- u29 -->
<g id="node14" class="node">
<title>u29</title>
<ellipse fill="#ffffbb" stroke="black" stroke-width="0" cx="701.8" cy="-287.17" rx="40.09" ry="18"/>
<text text-anchor="middle" x="701.8" y="-283.47" font-family="Times,serif" font-size="14.00">Signal</text>
</g>
<!-- u13&#45;&gt;u29 -->
<g id="edge54" class="edge">
<title>u13&#45;&gt;u29</title>
<path fill="none" stroke="black" d="M756.26,-451.56C745.9,-420.48 723.5,-353.29 710.89,-315.46"/>
<polygon fill="black" stroke="black" points="714.28,-314.56 707.8,-306.18 707.64,-316.77 714.28,-314.56"/>
</g>
<!-- u13&#45;&gt;u18 -->
<g id="edge52" class="edge">
<title>u13&#45;&gt;u18</title>
<path fill="none" stroke="black" d="M781.15,-452.82C821.05,-421.18 912.67,-348.53 959.73,-311.22"/>
<polygon fill="black" stroke="black" points="961.67,-314.15 967.33,-305.19 957.32,-308.66 961.67,-314.15"/>
</g>
<!-- u14 -->
<g id="node4" class="node">
<title>u14</title>
<ellipse fill="#ffffbb" stroke="black" stroke-width="0" cx="1793.8" cy="-1021.17" rx="139.18" ry="18"/>
<text text-anchor="middle" x="1793.8" y="-1017.47" font-family="Times,serif" font-size="14.00">FieldNameAfterUnderscore</text>
</g>
<!-- u15 -->
<g id="node5" class="node">
<title>u15</title>
<ellipse fill="#ffffbb" stroke="black" stroke-width="0" cx="1125.8" cy="-839.17" rx="68.49" ry="18"/>
<text text-anchor="middle" x="1125.8" y="-835.47" font-family="Times,serif" font-size="14.00">LedgerState</text>
</g>
<!-- u19 -->
<g id="node6" class="node">
<title>u19</title>
<ellipse fill="#ffffbb" stroke="black" stroke-width="0" cx="1160.8" cy="-469.17" rx="53.09" ry="18"/>
<text text-anchor="middle" x="1160.8" y="-465.47" font-family="Times,serif" font-size="14.00">StateFile</text>
</g>
<!-- u15&#45;&gt;u19 -->
<g id="edge56" class="edge">
<title>u15&#45;&gt;u19</title>
<path fill="none" stroke="black" d="M1127.39,-821.4C1132.9,-763.45 1151.19,-571.2 1158.11,-498.42"/>
<polygon fill="black" stroke="black" points="1161.59,-498.83 1159.05,-488.54 1154.62,-498.17 1161.59,-498.83"/>
</g>
<!-- u15&#45;&gt;u24 -->
<g id="edge57" class="edge">
<title>u15&#45;&gt;u24</title>
<path fill="none" stroke="black" d="M1110.66,-821.65C1070.41,-776.73 960.24,-647.06 907.8,-518.17 865.44,-414.08 890.5,-378.33 863.8,-269.17 852.06,-221.21 833.86,-166.69 822.67,-134.7"/>
<polygon fill="black" stroke="black" points="826.02,-133.68 819.39,-125.42 819.42,-136.01 826.02,-133.68"/>
</g>
<!-- u15&#45;&gt;u18 -->
<g id="edge55" class="edge">
<title>u15&#45;&gt;u18</title>
<path fill="none" stroke="black" d="M1125.6,-821.5C1124.52,-766.98 1117.65,-589.45 1073.8,-451.17 1057.59,-400.06 1026.04,-345.83 1006.27,-314.59"/>
<polygon fill="black" stroke="black" points="1009.23,-312.71 1000.88,-306.19 1003.34,-316.49 1009.23,-312.71"/>
</g>
<!-- u19&#45;&gt;u18 -->
<g id="edge69" class="edge">
<title>u19&#45;&gt;u18</title>
<path fill="none" stroke="black" d="M1145.53,-452.2C1115.42,-420.68 1048.17,-350.3 1012.33,-312.8"/>
<polygon fill="black" stroke="black" points="1015.26,-310.79 1005.82,-305.98 1010.2,-315.63 1015.26,-310.79"/>
</g>
<!-- u21 -->
<g id="node8" class="node">
<title>u21</title>
<ellipse fill="#ffffbb" stroke="black" stroke-width="0" cx="583.8" cy="-839.17" rx="39.79" ry="18"/>
<text text-anchor="middle" x="583.8" y="-835.47" font-family="Times,serif" font-size="14.00">Speed</text>
</g>
<!-- u28 -->
<g id="node13" class="node">
<title>u28</title>
<ellipse fill="#ffffbb" stroke="black" stroke-width="0" cx="591.8" cy="-658.17" rx="32.49" ry="18"/>
<text text-anchor="middle" x="591.8" y="-654.47" font-family="Times,serif" font-size="14.00">Core</text>
</g>
<!-- u21&#45;&gt;u28 -->
<g id="edge70" class="edge">
<title>u21&#45;&gt;u28</title>
<path fill="none" stroke="black" d="M584.55,-821.33C585.92,-790.54 588.86,-724.9 590.54,-687.25"/>
<polygon fill="black" stroke="black" points="594.02,-687.75 590.97,-677.61 587.03,-687.44 594.02,-687.75"/>
</g>
<!-- u25 -->
<g id="node10" class="node">
<title>u25</title>
<ellipse fill="#ffffbb" stroke="black" stroke-width="0" cx="1285.8" cy="-839.17" rx="27" ry="18"/>
<text text-anchor="middle" x="1285.8" y="-835.47" font-family="Times,serif" font-size="14.00">CLI</text>
</g>
<!-- u25&#45;&gt;u13 -->
<g id="edge72" class="edge">
<title>u25&#45;&gt;u13</title>
<path fill="none" stroke="black" d="M1268.06,-825.71C1191.67,-772.06 890.13,-560.3 792.49,-491.72"/>
<polygon fill="black" stroke="black" points="794.6,-488.93 784.41,-486.05 790.58,-494.66 794.6,-488.93"/>
</g>
<!-- u25&#45;&gt;u19 -->
<g id="edge74" class="edge">
<title>u25&#45;&gt;u19</title>
<path fill="none" stroke="black" d="M1285.53,-821.25C1284.53,-786.41 1279.81,-704.55 1257.8,-640.17 1238.96,-585.1 1201.91,-527.62 1179.45,-495.61"/>
<polygon fill="black" stroke="black" points="1182.51,-493.87 1173.86,-487.75 1176.8,-497.93 1182.51,-493.87"/>
</g>
<!-- u25&#45;&gt;u28 -->
<g id="edge75" class="edge">
<title>u25&#45;&gt;u28</title>
<path fill="none" stroke="black" d="M1261.5,-831.9C1158.69,-805.38 758.77,-702.24 631.16,-669.32"/>
<polygon fill="black" stroke="black" points="632.39,-666.02 621.83,-666.92 630.64,-672.8 632.39,-666.02"/>
</g>
<!-- u25&#45;&gt;u18 -->
<g id="edge73" class="edge">
<title>u25&#45;&gt;u18</title>
<path fill="none" stroke="black" d="M1288.5,-821.39C1296.79,-764.23 1316.74,-573.87 1237.8,-451.17 1189.86,-376.67 1094.45,-328.85 1036.65,-305.39"/>
<polygon fill="black" stroke="black" points="1037.96,-302.14 1027.38,-301.71 1035.38,-308.65 1037.96,-302.14"/>
</g>
<!-- u26 -->
<g id="node11" class="node">
<title>u26</title>
<ellipse fill="#ffffbb" stroke="black" stroke-width="0" cx="1363.8" cy="-839.17" rx="33.29" ry="18"/>
<text text-anchor="middle" x="1363.8" y="-835.47" font-family="Times,serif" font-size="14.00">Utxo</text>
</g>
<!-- u26&#45;&gt;u24 -->
<g id="edge77" class="edge">
<title>u26&#45;&gt;u24</title>
<path fill="none" stroke="black" d="M1342.16,-825.54C1260.92,-777.7 975.8,-605.86 919.8,-518.17 904.63,-494.42 879.31,-296.33 871.8,-269.17 858.38,-220.65 837.13,-165.97 824.13,-134.16"/>
<polygon fill="black" stroke="black" points="827.52,-133.22 820.47,-125.31 821.05,-135.89 827.52,-133.22"/>
</g>
<!-- u26&#45;&gt;u18 -->
<g id="edge76" class="edge">
<title>u26&#45;&gt;u18</title>
<path fill="none" stroke="black" d="M1363.61,-821.43C1362.13,-763.61 1350.09,-569.35 1256.8,-451.17 1198.5,-377.33 1096.85,-328.92 1036.9,-305.25"/>
<polygon fill="black" stroke="black" points="1038.21,-302 1027.62,-301.66 1035.68,-308.53 1038.21,-302"/>
</g>
<!-- u27 -->
<g id="node12" class="node">
<title>u27</title>
<ellipse fill="#ffffbb" stroke="black" stroke-width="0" cx="810.8" cy="-839.17" rx="89.08" ry="18"/>
<text text-anchor="middle" x="810.8" y="-835.47" font-family="Times,serif" font-size="14.00">EpochResolution</text>
</g>
<!-- u27&#45;&gt;u24 -->
<g id="edge78" class="edge">
<title>u27&#45;&gt;u24</title>
<path fill="none" stroke="black" d="M814.85,-821.34C830.86,-752.57 887.38,-486.22 857.8,-269.17 851.19,-220.74 833.98,-166.36 822.86,-134.53"/>
<polygon fill="black" stroke="black" points="826.22,-133.55 819.57,-125.3 819.63,-135.9 826.22,-133.55"/>
</g>
<!-- u28&#45;&gt;u0 -->
<g id="edge79" class="edge">
<title>u28&#45;&gt;u0</title>
<path fill="none" stroke="black" d="M582.5,-641.23C563.74,-609.04 521.17,-536.01 498.19,-496.58"/>
<polygon fill="black" stroke="black" points="501.36,-495.06 493.3,-488.18 495.31,-498.58 501.36,-495.06"/>
</g>
<!-- u28&#45;&gt;u13 -->
<g id="edge80" class="edge">
<title>u28&#45;&gt;u13</title>
<path fill="none" stroke="black" d="M605.42,-642.18C634.72,-609.95 703.95,-533.8 739.65,-494.53"/>
<polygon fill="black" stroke="black" points="741.99,-497.16 746.13,-487.4 736.81,-492.45 741.99,-497.16"/>
</g>
<!-- u28&#45;&gt;u19 -->
<g id="edge82" class="edge">
<title>u28&#45;&gt;u19</title>
<path fill="none" stroke="black" d="M620.65,-650.13C694.51,-631.79 896,-579.62 1057.8,-518.17 1079.89,-509.78 1103.87,-498.73 1123.12,-489.34"/>
<polygon fill="black" stroke="black" points="1124.51,-492.56 1131.93,-485 1121.42,-486.28 1124.51,-492.56"/>
</g>
<!-- u28&#45;&gt;u24 -->
<g id="edge84" class="edge">
<title>u28&#45;&gt;u24</title>
<path fill="none" stroke="black" d="M592.26,-640.25C594.3,-574.42 603.94,-335.66 637.8,-269.17 669.64,-206.63 736.05,-155.88 777.28,-128.73"/>
<polygon fill="black" stroke="black" points="779.16,-131.68 785.66,-123.32 775.36,-125.8 779.16,-131.68"/>
</g>
<!-- u28&#45;&gt;u29 -->
<g id="edge85" class="edge">
<title>u28&#45;&gt;u29</title>
<path fill="none" stroke="black" d="M596.66,-640.84C613.88,-583.1 671.98,-388.19 693.6,-315.66"/>
<polygon fill="black" stroke="black" points="696.92,-316.76 696.43,-306.18 690.22,-314.76 696.92,-316.76"/>
</g>
<!-- u28&#45;&gt;u18 -->
<g id="edge81" class="edge">
<title>u28&#45;&gt;u18</title>
<path fill="none" stroke="black" d="M622.34,-652.41C714.69,-637.34 987.72,-587.54 1038.8,-518.17 1084.52,-456.07 1035.65,-360.53 1006.81,-314.6"/>
<polygon fill="black" stroke="black" points="1009.85,-312.85 1001.48,-306.34 1003.96,-316.64 1009.85,-312.85"/>
</g>
<!-- u23 -->
<g id="node31" class="node">
<title>u23</title>
<ellipse fill="#bbffff" stroke="black" stroke-width="0" cx="980.8" cy="-469.17" rx="49.29" ry="18"/>
<text text-anchor="middle" x="980.8" y="-465.47" font-family="Times,serif" font-size="14.00">Formats</text>
</g>
<!-- u28&#45;&gt;u23 -->
<g id="edge83" class="edge">
<title>u28&#45;&gt;u23</title>
<path fill="none" stroke="black" d="M619.91,-649.15C679.66,-631.37 822.43,-584.83 927.8,-518.17 938.61,-511.33 949.3,-502.22 958.23,-493.77"/>
<polygon fill="black" stroke="black" points="960.41,-496.53 965.1,-487.03 955.51,-491.53 960.41,-496.53"/>
</g>
<!-- u16 -->
<g id="node15" class="node">
<title>u16</title>
<ellipse fill="#bbbbff" stroke="black" stroke-width="0" cx="601.8" cy="-1021.17" rx="88.28" ry="18"/>
<text text-anchor="middle" x="601.8" y="-1017.47" font-family="Times,serif" font-size="14.00">FoldLedgerState</text>
</g>
<!-- u16&#45;&gt;u13 -->
<g id="edge58" class="edge">
<title>u16&#45;&gt;u13</title>
<path fill="none" stroke="black" d="M606.67,-1003.41C629.42,-925.21 725.21,-595.94 753.74,-497.85"/>
<polygon fill="black" stroke="black" points="757.02,-499.1 756.46,-488.52 750.3,-497.15 757.02,-499.1"/>
</g>
<!-- u16&#45;&gt;u15 -->
<g id="edge59" class="edge">
<title>u16&#45;&gt;u15</title>
<path fill="none" stroke="black" d="M644.68,-1005.44C740.78,-972.43 973,-892.66 1075.61,-857.41"/>
<polygon fill="black" stroke="black" points="1076.55,-860.79 1084.87,-854.23 1074.27,-854.17 1076.55,-860.79"/>
</g>
<!-- u16&#45;&gt;u19 -->
<g id="edge61" class="edge">
<title>u16&#45;&gt;u19</title>
<path fill="none" stroke="black" d="M658.06,-1007.4C735.46,-987.3 875.25,-941.59 963.8,-857.17 1075.47,-750.7 1134.5,-567.12 1153.68,-497.77"/>
<polygon fill="black" stroke="black" points="1156.99,-498.95 1156.22,-488.38 1150.23,-497.12 1156.99,-498.95"/>
</g>
<!-- u16&#45;&gt;u24 -->
<g id="edge62" class="edge">
<title>u16&#45;&gt;u24</title>
<path fill="none" stroke="black" d="M605.72,-1003.63C612.51,-974.31 626.32,-911.23 632.8,-857.17 643.27,-769.68 642.8,-747.28 642.8,-659.17 642.8,-659.17 642.8,-659.17 642.8,-468.17 642.8,-379.61 617.12,-350.22 652.8,-269.17 679.81,-207.8 741.27,-156.63 779.67,-129.09"/>
<polygon fill="black" stroke="black" points="781.49,-132.09 787.66,-123.48 777.47,-126.36 781.49,-132.09"/>
</g>
<!-- u16&#45;&gt;u25 -->
<g id="edge63" class="edge">
<title>u16&#45;&gt;u25</title>
<path fill="none" stroke="black" d="M653.21,-1006.64C785.84,-971.74 1137.06,-879.31 1250.16,-849.55"/>
<polygon fill="black" stroke="black" points="1251.01,-852.94 1259.79,-847.01 1249.23,-846.17 1251.01,-852.94"/>
</g>
<!-- u16&#45;&gt;u28 -->
<g id="edge64" class="edge">
<title>u16&#45;&gt;u28</title>
<path fill="none" stroke="black" d="M592.48,-1003.72C576.85,-975.05 545.94,-913.6 534.8,-857.17 522.35,-794.14 555.43,-722.09 576.27,-684.7"/>
<polygon fill="black" stroke="black" points="579.08,-686.84 581.03,-676.42 573.01,-683.35 579.08,-686.84"/>
</g>
<!-- u16&#45;&gt;u29 -->
<g id="edge65" class="edge">
<title>u16&#45;&gt;u29</title>
<path fill="none" stroke="black" d="M607.66,-1003.28C617.59,-973.94 637.64,-911.51 647.8,-857.17 686.17,-651.92 697.94,-399.65 700.92,-316.33"/>
<polygon fill="black" stroke="black" points="704.41,-316.71 701.25,-306.59 697.41,-316.47 704.41,-316.71"/>
</g>
<!-- u16&#45;&gt;u18 -->
<g id="edge60" class="edge">
<title>u16&#45;&gt;u18</title>
<path fill="none" stroke="black" d="M645.37,-1005.65C730.38,-976.47 913.55,-909.05 953.8,-857.17 961.31,-847.48 989.57,-651.68 993.8,-640.17 1015.33,-581.48 1047.7,-578.57 1063.8,-518.17 1071.46,-489.4 1070.17,-480.26 1063.8,-451.17 1052.6,-400.05 1023.8,-345.82 1005.32,-314.58"/>
<polygon fill="black" stroke="black" points="1008.43,-312.96 1000.27,-306.21 1002.43,-316.58 1008.43,-312.96"/>
</g>
<!-- u17 -->
<g id="node16" class="node">
<title>u17</title>
<ellipse fill="#bbbbff" stroke="black" stroke-width="0" cx="402.8" cy="-1021.17" rx="92.88" ry="18"/>
<text text-anchor="middle" x="402.8" y="-1017.47" font-family="Times,serif" font-size="14.00">SlotNoChainPoint</text>
</g>
<!-- u17&#45;&gt;u28 -->
<g id="edge66" class="edge">
<title>u17&#45;&gt;u28</title>
<path fill="none" stroke="black" d="M411.41,-1003.72C441.42,-946.39 541.59,-755.06 578.23,-685.08"/>
<polygon fill="black" stroke="black" points="581.11,-687.13 582.65,-676.64 574.91,-683.88 581.11,-687.13"/>
</g>
<!-- u1 -->
<g id="node17" class="node">
<title>u1</title>
<ellipse fill="#ffbbbb" stroke="black" stroke-width="0" cx="1339.8" cy="-1021.17" rx="55.79" ry="18"/>
<text text-anchor="middle" x="1339.8" y="-1017.47" font-family="Times,serif" font-size="14.00">MintBurn</text>
</g>
<!-- u1&#45;&gt;u25 -->
<g id="edge3" class="edge">
<title>u1&#45;&gt;u25</title>
<path fill="none" stroke="black" d="M1334.81,-1003.56C1325.49,-972.48 1305.33,-905.29 1293.98,-867.46"/>
<polygon fill="black" stroke="black" points="1297.43,-866.76 1291.2,-858.19 1290.72,-868.77 1297.43,-866.76"/>
</g>
<!-- u1&#45;&gt;u28 -->
<g id="edge4" class="edge">
<title>u1&#45;&gt;u28</title>
<path fill="none" stroke="black" d="M1313.55,-1005.4C1236.58,-962.11 1014.64,-837.53 980.8,-821.17 853.89,-759.8 697.63,-699.04 628.12,-672.73"/>
<polygon fill="black" stroke="black" points="629.73,-669.6 619.14,-669.35 627.26,-676.15 629.73,-669.6"/>
</g>
<!-- u2 -->
<g id="node18" class="node">
<title>u2</title>
<ellipse fill="#ffbbbb" stroke="black" stroke-width="0" cx="1145.8" cy="-1210.17" rx="45.49" ry="18"/>
<text text-anchor="middle" x="1145.8" y="-1206.47" font-family="Times,serif" font-size="14.00">Mamba</text>
</g>
<!-- u2&#45;&gt;u14 -->
<g id="edge10" class="edge">
<title>u2&#45;&gt;u14</title>
<path fill="none" stroke="black" d="M1179.72,-1198.26C1186.36,-1196.19 1193.29,-1194.07 1199.8,-1192.17 1399.09,-1133.87 1452.06,-1130.35 1650.8,-1070.17 1679.76,-1061.4 1711.72,-1050.76 1738.07,-1041.73"/>
<polygon fill="black" stroke="black" points="1738.87,-1045.16 1747.18,-1038.6 1736.59,-1038.54 1738.87,-1045.16"/>
</g>
<!-- u2&#45;&gt;u15 -->
<g id="edge11" class="edge">
<title>u2&#45;&gt;u15</title>
<path fill="none" stroke="black" d="M1179,-1197.9C1185.83,-1195.82 1193.01,-1193.79 1199.8,-1192.17 1362.35,-1153.43 1833.65,-1197.55 1941.8,-1070.17 1963.37,-1044.76 1963.05,-1020.84 1941.8,-995.17 1917.7,-966.07 1386.09,-880.72 1194.14,-850.73"/>
<polygon fill="black" stroke="black" points="1194.73,-847.28 1184.31,-849.2 1193.65,-854.2 1194.73,-847.28"/>
</g>
<!-- u2&#45;&gt;u19 -->
<g id="edge12" class="edge">
<title>u2&#45;&gt;u19</title>
<path fill="none" stroke="black" d="M1179,-1197.87C1185.83,-1195.79 1193,-1193.77 1199.8,-1192.17 1367.78,-1152.59 1854.75,-1201.44 1966.8,-1070.17 2218.38,-775.41 1426.38,-540.4 1212.54,-483.4"/>
<polygon fill="black" stroke="black" points="1213.65,-480.08 1203.09,-480.9 1211.86,-486.85 1213.65,-480.08"/>
</g>
<!-- u2&#45;&gt;u24 -->
<g id="edge13" class="edge">
<title>u2&#45;&gt;u24</title>
<path fill="none" stroke="black" d="M1112.58,-1197.95C1105.45,-1195.81 1097.92,-1193.75 1090.8,-1192.17 896.77,-1149.13 346.03,-1210 204.8,-1070.17 131.37,-997.47 170.8,-943.5 170.8,-840.17 170.8,-840.17 170.8,-840.17 170.8,-468.17 170.8,-370.16 191.26,-332.8 265.8,-269.17 404.71,-150.57 627.34,-118.78 740.99,-110.27"/>
<polygon fill="black" stroke="black" points="741.07,-113.77 750.8,-109.58 740.57,-106.79 741.07,-113.77"/>
</g>
<!-- u2&#45;&gt;u25 -->
<g id="edge14" class="edge">
<title>u2&#45;&gt;u25</title>
<path fill="none" stroke="black" d="M1179,-1197.89C1185.83,-1195.8 1193.01,-1193.78 1199.8,-1192.17 1365.17,-1152.99 1844.62,-1199.58 1954.8,-1070.17 1976.4,-1044.79 1975.71,-1021.13 1954.8,-995.17 1774.17,-770.93 1594.39,-949.91 1321.8,-857.17 1320,-856.56 1318.17,-855.88 1316.34,-855.16"/>
<polygon fill="black" stroke="black" points="1317.98,-852.06 1307.41,-851.3 1315.2,-858.48 1317.98,-852.06"/>
</g>
<!-- u2&#45;&gt;u27 -->
<g id="edge15" class="edge">
<title>u2&#45;&gt;u27</title>
<path fill="none" stroke="black" d="M1112.56,-1198.04C1105.43,-1195.89 1097.91,-1193.81 1090.8,-1192.17 917.04,-1152.18 413.89,-1205.49 297.8,-1070.17 173.13,-924.85 540.75,-867.19 719.4,-848.17"/>
<polygon fill="black" stroke="black" points="719.54,-851.68 729.12,-847.16 718.81,-844.72 719.54,-851.68"/>
</g>
<!-- u2&#45;&gt;u28 -->
<g id="edge16" class="edge">
<title>u2&#45;&gt;u28</title>
<path fill="none" stroke="black" d="M1112.57,-1198.01C1105.44,-1195.86 1097.91,-1193.79 1090.8,-1192.17 910.51,-1151.2 401.6,-1197.76 267.8,-1070.17 186.57,-992.72 164.57,-915.23 225.8,-821.17 298.87,-708.91 469.42,-673.86 549.22,-663.39"/>
<polygon fill="black" stroke="black" points="549.31,-666.91 558.81,-662.2 548.45,-659.96 549.31,-666.91"/>
</g>
<!-- u2&#45;&gt;u1 -->
<g id="edge5" class="edge">
<title>u2&#45;&gt;u1</title>
<path fill="none" stroke="black" d="M1162,-1193.55C1195.94,-1160.84 1274.66,-1084.95 1315,-1046.07"/>
<polygon fill="black" stroke="black" points="1317.36,-1048.65 1322.13,-1039.19 1312.51,-1043.61 1317.36,-1048.65"/>
</g>
<!-- u3 -->
<g id="node19" class="node">
<title>u3</title>
<ellipse fill="#ffbbbb" stroke="black" stroke-width="0" cx="818.8" cy="-1021.17" rx="104.78" ry="18"/>
<text text-anchor="middle" x="818.8" y="-1017.47" font-family="Times,serif" font-size="14.00">EpochStakepoolSize</text>
</g>
<!-- u2&#45;&gt;u3 -->
<g id="edge6" class="edge">
<title>u2&#45;&gt;u3</title>
<path fill="none" stroke="black" d="M1121.22,-1195.11C1064.57,-1162.72 924.49,-1082.61 856.72,-1043.86"/>
<polygon fill="black" stroke="black" points="858.61,-1040.9 848.19,-1038.98 855.13,-1046.98 858.61,-1040.9"/>
</g>
<!-- u5 -->
<g id="node21" class="node">
<title>u5</title>
<ellipse fill="#ffbbbb" stroke="black" stroke-width="0" cx="983.8" cy="-1021.17" rx="42.49" ry="18"/>
<text text-anchor="middle" x="983.8" y="-1017.47" font-family="Times,serif" font-size="14.00">Datum</text>
</g>
<!-- u2&#45;&gt;u5 -->
<g id="edge7" class="edge">
<title>u2&#45;&gt;u5</title>
<path fill="none" stroke="black" d="M1131.98,-1193.23C1103.65,-1160.52 1038.78,-1085.64 1005.05,-1046.7"/>
<polygon fill="black" stroke="black" points="1007.76,-1044.48 998.56,-1039.22 1002.47,-1049.07 1007.76,-1044.48"/>
</g>
<!-- u8 -->
<g id="node24" class="node">
<title>u8</title>
<ellipse fill="#ffbbbb" stroke="black" stroke-width="0" cx="1232.8" cy="-1021.17" rx="33.29" ry="18"/>
<text text-anchor="middle" x="1232.8" y="-1017.47" font-family="Times,serif" font-size="14.00">Utxo</text>
</g>
<!-- u2&#45;&gt;u8 -->
<g id="edge8" class="edge">
<title>u2&#45;&gt;u8</title>
<path fill="none" stroke="black" d="M1153.52,-1192.57C1168.61,-1160.12 1202.16,-1088.03 1220.4,-1048.81"/>
<polygon fill="black" stroke="black" points="1223.53,-1050.38 1224.58,-1039.83 1217.19,-1047.42 1223.53,-1050.38"/>
</g>
<!-- u12 -->
<g id="node28" class="node">
<title>u12</title>
<ellipse fill="#ffbbbb" stroke="black" stroke-width="0" cx="1112.8" cy="-1021.17" rx="68.79" ry="18"/>
<text text-anchor="middle" x="1112.8" y="-1017.47" font-family="Times,serif" font-size="14.00">EpochNonce</text>
</g>
<!-- u2&#45;&gt;u12 -->
<g id="edge9" class="edge">
<title>u2&#45;&gt;u12</title>
<path fill="none" stroke="black" d="M1142.81,-1192.24C1137.12,-1159.98 1124.66,-1089.39 1117.72,-1050.05"/>
<polygon fill="black" stroke="black" points="1121.2,-1049.65 1116.02,-1040.41 1114.31,-1050.87 1121.2,-1049.65"/>
</g>
<!-- u3&#45;&gt;u15 -->
<g id="edge17" class="edge">
<title>u3&#45;&gt;u15</title>
<path fill="none" stroke="black" d="M846.58,-1003.88C902.37,-971.17 1027.95,-897.54 1089.88,-861.23"/>
<polygon fill="black" stroke="black" points="1091.44,-864.37 1098.3,-856.29 1087.9,-858.33 1091.44,-864.37"/>
</g>
<!-- u3&#45;&gt;u25 -->
<g id="edge18" class="edge">
<title>u3&#45;&gt;u25</title>
<path fill="none" stroke="black" d="M859.02,-1004.67C949.76,-969.69 1168.99,-885.19 1252.62,-852.96"/>
<polygon fill="black" stroke="black" points="1253.78,-856.26 1261.86,-849.4 1251.27,-849.73 1253.78,-856.26"/>
</g>
<!-- u3&#45;&gt;u27 -->
<g id="edge19" class="edge">
<title>u3&#45;&gt;u27</title>
<path fill="none" stroke="black" d="M818.04,-1003.24C816.66,-972.2 813.72,-905.93 812.04,-868.12"/>
<polygon fill="black" stroke="black" points="815.55,-868.27 811.61,-858.44 808.56,-868.58 815.55,-868.27"/>
</g>
<!-- u3&#45;&gt;u28 -->
<g id="edge20" class="edge">
<title>u3&#45;&gt;u28</title>
<path fill="none" stroke="black" d="M807.81,-1003.61C788.38,-974.26 746.82,-911.14 712.8,-857.17 674.1,-795.81 629.98,-722.8 607.2,-684.9"/>
<polygon fill="black" stroke="black" points="610.3,-683.25 602.15,-676.47 604.29,-686.85 610.3,-683.25"/>
</g>
<!-- u4 -->
<g id="node20" class="node">
<title>u4</title>
<ellipse fill="#ffbbbb" stroke="black" stroke-width="0" cx="1443.8" cy="-1210.17" rx="85.29" ry="18"/>
<text text-anchor="middle" x="1443.8" y="-1206.47" font-family="Times,serif" font-size="14.00">AddressBalance</text>
</g>
<!-- u4&#45;&gt;u24 -->
<g id="edge22" class="edge">
<title>u4&#45;&gt;u24</title>
<path fill="none" stroke="black" d="M1382.96,-1197.57C1371.94,-1195.64 1360.54,-1193.75 1349.8,-1192.17 1113.03,-1157.3 442.61,-1245.57 279.8,-1070.17 210.2,-995.19 270.8,-942.47 270.8,-840.17 270.8,-840.17 270.8,-840.17 270.8,-468.17 270.8,-240.03 607.54,-147.25 750.17,-118.19"/>
<polygon fill="black" stroke="black" points="750.71,-121.65 759.83,-116.26 749.34,-114.78 750.71,-121.65"/>
</g>
<!-- u4&#45;&gt;u25 -->
<g id="edge23" class="edge">
<title>u4&#45;&gt;u25</title>
<path fill="none" stroke="black" d="M1505.56,-1197.8C1641.86,-1172.11 1958.78,-1108.8 1988.8,-1070.17 2009.25,-1043.85 2009.84,-1021.02 1988.8,-995.17 1797.65,-760.43 1608.9,-953.14 1321.8,-857.17 1319.99,-856.57 1318.16,-855.9 1316.33,-855.18"/>
<polygon fill="black" stroke="black" points="1317.97,-852.08 1307.4,-851.34 1315.2,-858.51 1317.97,-852.08"/>
</g>
<!-- u4&#45;&gt;u26 -->
<g id="edge24" class="edge">
<title>u4&#45;&gt;u26</title>
<path fill="none" stroke="black" d="M1503.29,-1197.29C1650.28,-1167.67 2019.97,-1091.39 2036.8,-1070.17 2057.5,-1044.05 2057.55,-1021.25 2036.8,-995.17 1957.26,-895.24 1544.02,-854.29 1407.57,-843.36"/>
<polygon fill="black" stroke="black" points="1408.11,-839.89 1397.87,-842.59 1407.57,-846.87 1408.11,-839.89"/>
</g>
<!-- u4&#45;&gt;u28 -->
<g id="edge25" class="edge">
<title>u4&#45;&gt;u28</title>
<path fill="none" stroke="black" d="M1382.96,-1197.57C1371.94,-1195.64 1360.54,-1193.76 1349.8,-1192.17 1114.35,-1157.42 444.21,-1247.78 285.8,-1070.17 248.97,-1028.87 257.25,-868.57 285.8,-821.17 344.1,-724.34 481.84,-682.35 550.87,-666.89"/>
<polygon fill="black" stroke="black" points="551.22,-670.39 560.25,-664.86 549.74,-663.55 551.22,-670.39"/>
</g>
<!-- u4&#45;&gt;u18 -->
<g id="edge21" class="edge">
<title>u4&#45;&gt;u18</title>
<path fill="none" stroke="black" d="M1504.85,-1197.65C1658.23,-1168.42 2048.75,-1092.19 2066.8,-1070.17 2131.6,-991.09 2071.8,-942.42 2071.8,-840.17 2071.8,-840.17 2071.8,-840.17 2071.8,-657.17 2071.8,-565.59 2127.36,-519.87 2066.8,-451.17 1933.37,-299.81 1274.49,-287.5 1057.92,-287.62"/>
<polygon fill="black" stroke="black" points="1057.93,-284.12 1047.94,-287.64 1057.94,-291.12 1057.93,-284.12"/>
</g>
<!-- u5&#45;&gt;u25 -->
<g id="edge26" class="edge">
<title>u5&#45;&gt;u25</title>
<path fill="none" stroke="black" d="M1006.99,-1006.34C1061.44,-973.89 1197.31,-892.91 1256.96,-857.36"/>
<polygon fill="black" stroke="black" points="1258.41,-860.56 1265.21,-852.44 1254.83,-854.55 1258.41,-860.56"/>
</g>
<!-- u5&#45;&gt;u28 -->
<g id="edge27" class="edge">
<title>u5&#45;&gt;u28</title>
<path fill="none" stroke="black" d="M979.14,-1003.29C967.1,-960.56 934.08,-849.45 908.8,-821.17 831.7,-734.92 697.88,-688.19 631.5,-669.3"/>
<polygon fill="black" stroke="black" points="632.71,-666 622.14,-666.7 630.84,-672.75 632.71,-666"/>
</g>
<!-- u6 -->
<g id="node22" class="node">
<title>u6</title>
<ellipse fill="#ffbbbb" stroke="black" stroke-width="0" cx="884.8" cy="-1210.17" rx="79.09" ry="18"/>
<text text-anchor="middle" x="884.8" y="-1206.47" font-family="Times,serif" font-size="14.00">AddressDatum</text>
</g>
<!-- u6&#45;&gt;u25 -->
<g id="edge29" class="edge">
<title>u6&#45;&gt;u25</title>
<path fill="none" stroke="black" d="M938.73,-1197.02C1071.55,-1166.86 1404.77,-1089.6 1419.8,-1070.17 1475.67,-997.92 1365.41,-900.15 1312.23,-859.32"/>
<polygon fill="black" stroke="black" points="1314.62,-856.73 1304.52,-853.51 1310.4,-862.32 1314.62,-856.73"/>
</g>
<!-- u6&#45;&gt;u28 -->
<g id="edge30" class="edge">
<title>u6&#45;&gt;u28</title>
<path fill="none" stroke="black" d="M827.05,-1197.97C816.97,-1196.02 806.58,-1194.03 796.8,-1192.17 652.21,-1164.65 239.8,-1183.42 145.8,-1070.17 110.46,-1027.59 114.04,-866.49 145.8,-821.17 239.43,-687.54 455.16,-663.71 548,-659.77"/>
<polygon fill="black" stroke="black" points="548.1,-663.27 557.97,-659.42 547.85,-656.28 548.1,-663.27"/>
</g>
<!-- u6&#45;&gt;u5 -->
<g id="edge28" class="edge">
<title>u6&#45;&gt;u5</title>
<path fill="none" stroke="black" d="M893.58,-1192.57C910.75,-1160.14 948.9,-1088.08 969.67,-1048.86"/>
<polygon fill="black" stroke="black" points="972.74,-1050.54 974.32,-1040.06 966.55,-1047.26 972.74,-1050.54"/>
</g>
<!-- u7 -->
<g id="node23" class="node">
<title>u7</title>
<ellipse fill="#ffbbbb" stroke="black" stroke-width="0" cx="1592.8" cy="-1210.17" rx="46.29" ry="18"/>
<text text-anchor="middle" x="1592.8" y="-1206.47" font-family="Times,serif" font-size="14.00">Deposit</text>
</g>
<!-- u7&#45;&gt;u25 -->
<g id="edge32" class="edge">
<title>u7&#45;&gt;u25</title>
<path fill="none" stroke="black" d="M1635.64,-1203.83C1760.35,-1186.63 2107.72,-1126.01 2000.8,-995.17 1805.93,-756.72 1614.03,-954.29 1321.8,-857.17 1319.99,-856.57 1318.16,-855.9 1316.33,-855.19"/>
<polygon fill="black" stroke="black" points="1317.97,-852.08 1307.4,-851.35 1315.2,-858.52 1317.97,-852.08"/>
</g>
<!-- u7&#45;&gt;u26 -->
<g id="edge33" class="edge">
<title>u7&#45;&gt;u26</title>
<path fill="none" stroke="black" d="M1638.1,-1206.63C1784.07,-1196.82 2225.28,-1153.66 2096.8,-995.17 2008.86,-886.69 1552.8,-851.14 1407.98,-842.5"/>
<polygon fill="black" stroke="black" points="1408.22,-839.01 1398.03,-841.92 1407.81,-846 1408.22,-839.01"/>
</g>
<!-- u7&#45;&gt;u28 -->
<g id="edge34" class="edge">
<title>u7&#45;&gt;u28</title>
<path fill="none" stroke="black" d="M1559.63,-1197.74C1552.49,-1195.61 1544.95,-1193.61 1537.8,-1192.17 1266.37,-1137.45 483.75,-1275.32 297.8,-1070.17 275.41,-1045.47 286.07,-1026.37 297.8,-995.17 352.4,-849.84 501.52,-726.25 563.84,-679.34"/>
<polygon fill="black" stroke="black" points="565.92,-682.15 571.85,-673.38 561.74,-676.53 565.92,-682.15"/>
</g>
<!-- u7&#45;&gt;u18 -->
<g id="edge31" class="edge">
<title>u7&#45;&gt;u18</title>
<path fill="none" stroke="black" d="M1636.4,-1204.49C1752.61,-1191.03 2065.16,-1148.14 2126.8,-1070.17 2190.2,-989.96 2131.8,-942.42 2131.8,-840.17 2131.8,-840.17 2131.8,-840.17 2131.8,-657.17 2131.8,-563.36 2154.48,-515.07 2085.8,-451.17 1935.52,-311.37 1274.68,-291.37 1057.92,-288.59"/>
<polygon fill="black" stroke="black" points="1057.97,-285.09 1047.93,-288.47 1057.89,-292.09 1057.97,-285.09"/>
</g>
<!-- u8&#45;&gt;u15 -->
<g id="edge35" class="edge">
<title>u8&#45;&gt;u15</title>
<path fill="none" stroke="black" d="M1223.3,-1004.2C1204.88,-973.21 1164.13,-904.66 1141.58,-866.72"/>
<polygon fill="black" stroke="black" points="1144.63,-865 1136.51,-858.19 1138.61,-868.57 1144.63,-865"/>
</g>
<!-- u8&#45;&gt;u19 -->
<g id="edge37" class="edge">
<title>u8&#45;&gt;u19</title>
<path fill="none" stroke="black" d="M1230.6,-1003.41C1220.39,-925.37 1177.44,-597.27 1164.5,-498.45"/>
<polygon fill="black" stroke="black" points="1167.97,-498.03 1163.2,-488.57 1161.03,-498.94 1167.97,-498.03"/>
</g>
<!-- u8&#45;&gt;u24 -->
<g id="edge38" class="edge">
<title>u8&#45;&gt;u24</title>
<path fill="none" stroke="black" d="M1213.07,-1006.73C1176.7,-981.15 1098.29,-922.2 1048.8,-857.17 947.19,-723.68 934.3,-677.83 882.8,-518.17 837.82,-378.74 820.21,-202.87 814.8,-135.34"/>
<polygon fill="black" stroke="black" points="818.3,-135.23 814.05,-125.53 811.32,-135.77 818.3,-135.23"/>
</g>
<!-- u8&#45;&gt;u25 -->
<g id="edge39" class="edge">
<title>u8&#45;&gt;u25</title>
<path fill="none" stroke="black" d="M1237.69,-1003.56C1246.84,-972.48 1266.62,-905.29 1277.76,-867.46"/>
<polygon fill="black" stroke="black" points="1281.02,-868.77 1280.49,-858.19 1274.31,-866.8 1281.02,-868.77"/>
</g>
<!-- u8&#45;&gt;u26 -->
<g id="edge40" class="edge">
<title>u8&#45;&gt;u26</title>
<path fill="none" stroke="black" d="M1244.19,-1004.51C1266.93,-973.26 1318.12,-902.93 1345.58,-865.2"/>
<polygon fill="black" stroke="black" points="1348.39,-867.29 1351.44,-857.14 1342.73,-863.17 1348.39,-867.29"/>
</g>
<!-- u8&#45;&gt;u28 -->
<g id="edge41" class="edge">
<title>u8&#45;&gt;u28</title>
<path fill="none" stroke="black" d="M1215.21,-1006.17C1171.64,-971.87 1054.47,-882.01 947.8,-821.17 835.72,-757.25 693.9,-698.97 628.23,-673.17"/>
<polygon fill="black" stroke="black" points="629.61,-669.96 619.02,-669.58 627.06,-676.48 629.61,-669.96"/>
</g>
<!-- u8&#45;&gt;u18 -->
<g id="edge36" class="edge">
<title>u8&#45;&gt;u18</title>
<path fill="none" stroke="black" d="M1233.09,-1003.35C1234.61,-911.74 1241.12,-476.11 1227.8,-451.17 1187.34,-375.42 1094.31,-328.14 1036.98,-305.1"/>
<polygon fill="black" stroke="black" points="1038.36,-301.88 1027.78,-301.49 1035.81,-308.4 1038.36,-301.88"/>
</g>
<!-- u9 -->
<g id="node25" class="node">
<title>u9</title>
<ellipse fill="#ffbbbb" stroke="black" stroke-width="0" cx="1031.8" cy="-1210.17" rx="50.09" ry="18"/>
<text text-anchor="middle" x="1031.8" y="-1206.47" font-family="Times,serif" font-size="14.00">ScriptTx</text>
</g>
<!-- u9&#45;&gt;u25 -->
<g id="edge42" class="edge">
<title>u9&#45;&gt;u25</title>
<path fill="none" stroke="black" d="M1068.25,-1198.01C1166.21,-1167.86 1428.47,-1085.99 1439.8,-1070.17 1495.32,-992.6 1372.13,-897.03 1314,-858.02"/>
<polygon fill="black" stroke="black" points="1316.15,-855.24 1305.88,-852.66 1312.3,-861.09 1316.15,-855.24"/>
</g>
<!-- u9&#45;&gt;u28 -->
<g id="edge43" class="edge">
<title>u9&#45;&gt;u28</title>
<path fill="none" stroke="black" d="M995.47,-1197.92C988.02,-1195.83 980.19,-1193.8 972.8,-1192.17 799.97,-1154.04 300.95,-1204.56 185.8,-1070.17 113.79,-986.14 123.71,-912.78 185.8,-821.17 269.03,-698.34 461.94,-668.64 548.45,-661.46"/>
<polygon fill="black" stroke="black" points="548.47,-664.96 558.18,-660.72 547.94,-657.98 548.47,-664.96"/>
</g>
<!-- u10 -->
<g id="node26" class="node">
<title>u10</title>
<ellipse fill="#ffbbbb" stroke="black" stroke-width="0" cx="1274.8" cy="-1210.17" rx="65.79" ry="18"/>
<text text-anchor="middle" x="1274.8" y="-1206.47" font-family="Times,serif" font-size="14.00">BlockBasics</text>
</g>
<!-- u10&#45;&gt;u25 -->
<g id="edge44" class="edge">
<title>u10&#45;&gt;u25</title>
<path fill="none" stroke="black" d="M1323.16,-1197.98C1332.01,-1195.99 1341.17,-1193.98 1349.8,-1192.17 1627.6,-1133.67 1796.24,-1289.24 1976.8,-1070.17 1998,-1044.45 1997.8,-1021.06 1976.8,-995.17 1789.36,-764.13 1603.78,-952 1321.8,-857.17 1319.99,-856.56 1318.16,-855.89 1316.33,-855.17"/>
<polygon fill="black" stroke="black" points="1317.97,-852.07 1307.4,-851.33 1315.2,-858.5 1317.97,-852.07"/>
</g>
<!-- u10&#45;&gt;u28 -->
<g id="edge45" class="edge">
<title>u10&#45;&gt;u28</title>
<path fill="none" stroke="black" d="M1227.73,-1197.78C1218.5,-1195.75 1208.87,-1193.77 1199.8,-1192.17 989.34,-1154.95 387.01,-1230.6 245.8,-1070.17 227.52,-1049.4 230.95,-844.51 245.8,-821.17 313.85,-714.17 473.23,-676.63 549.58,-664.49"/>
<polygon fill="black" stroke="black" points="549.79,-667.99 559.16,-663.04 548.75,-661.07 549.79,-667.99"/>
</g>
<!-- u11 -->
<g id="node27" class="node">
<title>u11</title>
<ellipse fill="#ffbbbb" stroke="black" stroke-width="0" cx="750.8" cy="-1210.17" rx="37.09" ry="18"/>
<text text-anchor="middle" x="750.8" y="-1206.47" font-family="Times,serif" font-size="14.00">NoOp</text>
</g>
<!-- u11&#45;&gt;u25 -->
<g id="edge46" class="edge">
<title>u11&#45;&gt;u25</title>
<path fill="none" stroke="black" d="M778.3,-1198.21C784.33,-1196.03 790.73,-1193.89 796.8,-1192.17 1061.97,-1117.06 1230.13,-1283.36 1404.8,-1070.17 1425.92,-1044.38 1415.51,-1026.73 1404.8,-995.17 1386.01,-939.86 1338.66,-888.83 1309.67,-861.35"/>
<polygon fill="black" stroke="black" points="1312.13,-858.86 1302.42,-854.62 1307.37,-863.99 1312.13,-858.86"/>
</g>
<!-- u11&#45;&gt;u28 -->
<g id="edge47" class="edge">
<title>u11&#45;&gt;u28</title>
<path fill="none" stroke="black" d="M714.44,-1206.85C592.4,-1198.23 200.73,-1163.6 125.8,-1070.17 56.56,-983.84 61.66,-911.36 125.8,-821.17 224.78,-681.96 452.35,-661.33 548.09,-659.01"/>
<polygon fill="black" stroke="black" points="547.91,-662.52 557.85,-658.84 547.79,-655.52 547.91,-662.52"/>
</g>
<!-- u12&#45;&gt;u15 -->
<g id="edge48" class="edge">
<title>u12&#45;&gt;u15</title>
<path fill="none" stroke="black" d="M1114.02,-1003.24C1116.26,-972.2 1121.05,-905.93 1123.78,-868.12"/>
<polygon fill="black" stroke="black" points="1127.25,-868.66 1124.48,-858.44 1120.27,-868.16 1127.25,-868.66"/>
</g>
<!-- u12&#45;&gt;u25 -->
<g id="edge49" class="edge">
<title>u12&#45;&gt;u25</title>
<path fill="none" stroke="black" d="M1128.45,-1003.88C1159.56,-971.51 1229.18,-899.07 1264.45,-862.38"/>
<polygon fill="black" stroke="black" points="1266.78,-865.01 1271.18,-855.37 1261.73,-860.16 1266.78,-865.01"/>
</g>
<!-- u12&#45;&gt;u27 -->
<g id="edge50" class="edge">
<title>u12&#45;&gt;u27</title>
<path fill="none" stroke="black" d="M1086.79,-1004.67C1032.98,-972.6 909.32,-898.89 847.45,-862.02"/>
<polygon fill="black" stroke="black" points="849.4,-859.1 839.02,-856.99 845.81,-865.11 849.4,-859.1"/>
</g>
<!-- u12&#45;&gt;u28 -->
<g id="edge51" class="edge">
<title>u12&#45;&gt;u28</title>
<path fill="none" stroke="black" d="M1100.35,-1003.59C1072.13,-966.87 999.69,-877.45 922.8,-821.17 825.63,-750.05 692.44,-695.95 628.7,-672.27"/>
<polygon fill="black" stroke="black" points="630.01,-669.03 619.42,-668.86 627.6,-675.6 630.01,-669.03"/>
</g>
<!-- u18&#45;&gt;u24 -->
<g id="edge68" class="edge">
<title>u18&#45;&gt;u24</title>
<path fill="none" stroke="black" d="M972.55,-269.65C941.3,-237.87 872.7,-168.09 836.4,-131.17"/>
<polygon fill="black" stroke="black" points="839.31,-129.15 829.81,-124.47 834.32,-134.05 839.31,-129.15"/>
</g>
<!-- u22 -->
<g id="node30" class="node">
<title>u22</title>
<ellipse fill="#bbffff" stroke="black" stroke-width="0" cx="988.8" cy="-106.17" rx="50.09" ry="18"/>
<text text-anchor="middle" x="988.8" y="-102.47" font-family="Times,serif" font-size="14.00">Orphans</text>
</g>
<!-- u18&#45;&gt;u22 -->
<g id="edge67" class="edge">
<title>u18&#45;&gt;u22</title>
<path fill="none" stroke="black" d="M988.8,-268.68C988.8,-237.56 988.8,-172.35 988.8,-135.01"/>
<polygon fill="black" stroke="black" points="992.3,-135.46 988.8,-125.46 985.3,-135.46 992.3,-135.46"/>
</g>
<!-- u23&#45;&gt;u18 -->
<g id="edge71" class="edge">
<title>u23&#45;&gt;u18</title>
<path fill="none" stroke="black" d="M981.55,-451.24C982.92,-420.36 985.84,-354.6 987.53,-316.7"/>
<polygon fill="black" stroke="black" points="991.01,-317.11 987.96,-306.97 984.02,-316.8 991.01,-317.11"/>
</g>
</g>
</svg>
