<?xml version="1.0" encoding="UTF-8" standalone="no"?>
<!DOCTYPE svg PUBLIC "-//W3C//DTD SVG 1.1//EN"
 "http://www.w3.org/Graphics/SVG/1.1/DTD/svg11.dtd">
<!-- Generated by graphviz version 7.1.0 (0)
 -->
<!-- Title: G Pages: 1 -->
<svg width="72pt" height="71pt"
 viewBox="0.00 0.00 72.00 71.49" xmlns="http://www.w3.org/2000/svg" xmlns:xlink="http://www.w3.org/1999/xlink">
<g id="graph0" class="graph" transform="scale(0.0331574 0.0331574) rotate(0) translate(4 2152)">
<title>G</title>
<polygon fill="white" stroke="none" points="-4,4 -4,-2152 2167.46,-2152 2167.46,4 -4,4"/>
<g id="clust1" class="cluster">
<title>cluster_0</title>
<polygon fill="#000000" fill-opacity="0.058824" stroke="#000000" stroke-opacity="0.058824" points="101.8,-30.25 101.8,-2117.75 2140.8,-2117.75 2140.8,-30.25 101.8,-30.25"/>
<text text-anchor="middle" x="1121.3" y="-2102.55" font-family="Times,serif" font-size="14.00">Mafoc</text>
</g>
<g id="clust2" class="cluster">
<title>cluster_1</title>
<polygon fill="#000000" fill-opacity="0.058824" stroke="#000000" stroke-opacity="0.058824" points="301.8,-1433.26 301.8,-1716.89 697.8,-1716.89 697.8,-1433.26 301.8,-1433.26"/>
<text text-anchor="middle" x="499.8" y="-1701.69" font-family="Times,serif" font-size="14.00">Cmds</text>
</g>
<g id="clust3" class="cluster">
<title>cluster_2</title>
<polygon fill="#000000" fill-opacity="0.058824" stroke="#000000" stroke-opacity="0.058824" points="705.8,-1433.26 705.8,-2000.51 1646.8,-2000.51 1646.8,-1433.26 705.8,-1433.26"/>
<text text-anchor="middle" x="1176.3" y="-1985.31" font-family="Times,serif" font-size="14.00">Indexers</text>
</g>
<g id="clust4" class="cluster">
<title>cluster_3</title>
<polygon fill="#000000" fill-opacity="0.058824" stroke="#000000" stroke-opacity="0.058824" points="923.8,-60.51 923.8,-888.7 1053.8,-888.7 1053.8,-60.51 923.8,-60.51"/>
<text text-anchor="middle" x="988.8" y="-873.5" font-family="Times,serif" font-size="14.00">Upstream</text>
</g>
<!-- u30 -->
<g id="node1" class="node">
<title>u30</title>
<ellipse fill="#bbffbb" stroke="black" stroke-width="0" cx="46.8" cy="-1815.25" rx="46.59" ry="18"/>
<text text-anchor="middle" x="46.8" y="-1811.55" font-family="Times,serif" font-size="14.00">Prelude</text>
</g>
<!-- u0 -->
<g id="node2" class="node">
<title>u0</title>
<ellipse fill="#ffffbb" stroke="black" stroke-width="0" cx="482.8" cy="-703.25" rx="100.98" ry="18"/>
<text text-anchor="middle" x="482.8" y="-699.55" font-family="Times,serif" font-size="14.00">RollbackRingBuffer</text>
</g>
<!-- u20 -->
<g id="node7" class="node">
<title>u20</title>
<ellipse fill="#ffffbb" stroke="black" stroke-width="0" cx="482.8" cy="-431.25" rx="61.19" ry="18"/>
<text text-anchor="middle" x="482.8" y="-427.55" font-family="Times,serif" font-size="14.00">RingBuffer</text>
</g>
<!-- u0&#45;&gt;u20 -->
<g id="edge2" class="edge">
<title>u0&#45;&gt;u20</title>
<path fill="none" stroke="black" d="M482.8,-685.36C482.8,-640.28 482.8,-516.75 482.8,-460.65"/>
<polygon fill="black" stroke="black" points="486.3,-460.65 482.8,-450.65 479.3,-460.65 486.3,-460.65"/>
</g>
<!-- u18 -->
<g id="node29" class="node">
<title>u18</title>
<ellipse fill="#ffffbb" stroke="black" stroke-width="2" cx="988.8" cy="-431.25" rx="57.39" ry="18"/>
<text text-anchor="middle" x="988.8" y="-427.55" font-family="Times,serif" font-size="14.00">Upstream</text>
</g>
<!-- u0&#45;&gt;u18 -->
<g id="edge1" class="edge">
<title>u0&#45;&gt;u18</title>
<path fill="none" stroke="black" d="M512.93,-686.17C600.38,-639.51 854.1,-504.13 950.77,-452.54"/>
<polygon fill="black" stroke="black" points="952.19,-455.75 959.36,-447.96 948.89,-449.58 952.19,-455.75"/>
</g>
<!-- u13 -->
<g id="node3" class="node">
<title>u13</title>
<ellipse fill="#ffffbb" stroke="black" stroke-width="0" cx="761.8" cy="-703.25" rx="48.19" ry="18"/>
<text text-anchor="middle" x="761.8" y="-699.55" font-family="Times,serif" font-size="14.00">Logging</text>
</g>
<!-- u24 -->
<g id="node9" class="node">
<title>u24</title>
<ellipse fill="#ffffbb" stroke="black" stroke-width="0" cx="812.8" cy="-159.25" rx="61.99" ry="18"/>
<text text-anchor="middle" x="812.8" y="-155.55" font-family="Times,serif" font-size="14.00">Exceptions</text>
</g>
<!-- u13&#45;&gt;u24 -->
<g id="edge53" class="edge">
<title>u13&#45;&gt;u24</title>
<path fill="none" stroke="black" d="M763.38,-685.44C770.66,-608.07 800.97,-285.97 810.15,-188.39"/>
<polygon fill="black" stroke="black" points="813.61,-188.93 811.07,-178.65 806.64,-188.28 813.61,-188.93"/>
</g>
<!-- u29 -->
<g id="node14" class="node">
<title>u29</title>
<ellipse fill="#ffffbb" stroke="black" stroke-width="0" cx="701.8" cy="-431.25" rx="40.09" ry="18"/>
<text text-anchor="middle" x="701.8" y="-427.55" font-family="Times,serif" font-size="14.00">Signal</text>
</g>
<!-- u13&#45;&gt;u29 -->
<g id="edge54" class="edge">
<title>u13&#45;&gt;u29</title>
<path fill="none" stroke="black" d="M758.04,-685.36C748,-640.19 720.46,-516.23 708.03,-460.29"/>
<polygon fill="black" stroke="black" points="711.46,-459.62 705.88,-450.61 704.63,-461.14 711.46,-459.62"/>
</g>
<!-- u13&#45;&gt;u18 -->
<g id="edge52" class="edge">
<title>u13&#45;&gt;u18</title>
<path fill="none" stroke="black" d="M775.32,-686.17C813.3,-640.99 921.22,-512.63 967.4,-457.7"/>
<polygon fill="black" stroke="black" points="970.04,-460 973.8,-450.09 964.68,-455.5 970.04,-460"/>
</g>
<!-- u14 -->
<g id="node4" class="node">
<title>u14</title>
<ellipse fill="#ffffbb" stroke="black" stroke-width="0" cx="1793.8" cy="-1531.25" rx="139.18" ry="18"/>
<text text-anchor="middle" x="1793.8" y="-1527.55" font-family="Times,serif" font-size="14.00">FieldNameAfterUnderscore</text>
</g>
<!-- u15 -->
<g id="node5" class="node">
<title>u15</title>
<ellipse fill="#ffffbb" stroke="black" stroke-width="0" cx="1125.8" cy="-1259.25" rx="68.49" ry="18"/>
<text text-anchor="middle" x="1125.8" y="-1255.55" font-family="Times,serif" font-size="14.00">LedgerState</text>
</g>
<!-- u19 -->
<g id="node6" class="node">
<title>u19</title>
<ellipse fill="#ffffbb" stroke="black" stroke-width="0" cx="1160.8" cy="-703.25" rx="53.09" ry="18"/>
<text text-anchor="middle" x="1160.8" y="-699.55" font-family="Times,serif" font-size="14.00">StateFile</text>
</g>
<!-- u15&#45;&gt;u19 -->
<g id="edge56" class="edge">
<title>u15&#45;&gt;u19</title>
<path fill="none" stroke="black" d="M1126.86,-1241.37C1131.83,-1162.68 1152.75,-831.55 1159.02,-732.41"/>
<polygon fill="black" stroke="black" points="1162.5,-732.72 1159.64,-722.51 1155.52,-732.27 1162.5,-732.72"/>
</g>
<!-- u15&#45;&gt;u24 -->
<g id="edge57" class="edge">
<title>u15&#45;&gt;u24</title>
<path fill="none" stroke="black" d="M1116.69,-1241.84C1082.82,-1179.92 963.13,-953.8 907.8,-752.25 867.57,-605.74 888.6,-563.15 863.8,-413.25 850.17,-330.9 829.37,-234.44 819.05,-188"/>
<polygon fill="black" stroke="black" points="822.53,-187.53 816.94,-178.53 815.7,-189.05 822.53,-187.53"/>
</g>
<!-- u15&#45;&gt;u18 -->
<g id="edge55" class="edge">
<title>u15&#45;&gt;u18</title>
<path fill="none" stroke="black" d="M1125.7,-1241.64C1125,-1172.58 1119.34,-901.77 1073.8,-685.25 1056.08,-601.02 1019.32,-505.82 1000.48,-459.92"/>
<polygon fill="black" stroke="black" points="1003.74,-458.64 996.68,-450.75 997.27,-461.32 1003.74,-458.64"/>
</g>
<!-- u19&#45;&gt;u18 -->
<g id="edge69" class="edge">
<title>u19&#45;&gt;u18</title>
<path fill="none" stroke="black" d="M1150.3,-685.77C1121.46,-640.5 1040.85,-513.96 1005.62,-458.67"/>
<polygon fill="black" stroke="black" points="1008.74,-457.04 1000.41,-450.49 1002.83,-460.8 1008.74,-457.04"/>
</g>
<!-- u21 -->
<g id="node8" class="node">
<title>u21</title>
<ellipse fill="#ffffbb" stroke="black" stroke-width="0" cx="583.8" cy="-1259.25" rx="39.79" ry="18"/>
<text text-anchor="middle" x="583.8" y="-1255.55" font-family="Times,serif" font-size="14.00">Speed</text>
</g>
<!-- u28 -->
<g id="node13" class="node">
<title>u28</title>
<ellipse fill="#ffffbb" stroke="black" stroke-width="0" cx="591.8" cy="-987.25" rx="32.49" ry="18"/>
<text text-anchor="middle" x="591.8" y="-983.55" font-family="Times,serif" font-size="14.00">Core</text>
</g>
<!-- u21&#45;&gt;u28 -->
<g id="edge70" class="edge">
<title>u21&#45;&gt;u28</title>
<path fill="none" stroke="black" d="M584.3,-1241.36C585.63,-1196.19 589.31,-1072.23 590.97,-1016.29"/>
<polygon fill="black" stroke="black" points="594.45,-1016.75 591.25,-1006.65 587.46,-1016.54 594.45,-1016.75"/>
</g>
<!-- u25 -->
<g id="node10" class="node">
<title>u25</title>
<ellipse fill="#ffffbb" stroke="black" stroke-width="0" cx="1285.8" cy="-1259.25" rx="27" ry="18"/>
<text text-anchor="middle" x="1285.8" y="-1255.55" font-family="Times,serif" font-size="14.00">CLI</text>
</g>
<!-- u25&#45;&gt;u13 -->
<g id="edge72" class="edge">
<title>u25&#45;&gt;u13</title>
<path fill="none" stroke="black" d="M1272.32,-1244C1201.71,-1169.36 874.36,-823.26 784.61,-728.37"/>
<polygon fill="black" stroke="black" points="787.37,-726.19 777.95,-721.33 782.28,-731 787.37,-726.19"/>
</g>
<!-- u25&#45;&gt;u19 -->
<g id="edge74" class="edge">
<title>u25&#45;&gt;u19</title>
<path fill="none" stroke="black" d="M1285.65,-1241.4C1284.95,-1196.55 1280.89,-1070.75 1257.8,-969.25 1237.32,-879.25 1194.45,-778.2 1173.23,-731.1"/>
<polygon fill="black" stroke="black" points="1176.52,-729.88 1169.2,-722.23 1170.15,-732.78 1176.52,-729.88"/>
</g>
<!-- u25&#45;&gt;u28 -->
<g id="edge75" class="edge">
<title>u25&#45;&gt;u28</title>
<path fill="none" stroke="black" d="M1263.49,-1249.58C1163.05,-1210.5 752.21,-1050.66 627.72,-1002.23"/>
<polygon fill="black" stroke="black" points="629.24,-999.07 618.65,-998.7 626.71,-1005.59 629.24,-999.07"/>
</g>
<!-- u25&#45;&gt;u18 -->
<g id="edge73" class="edge">
<title>u25&#45;&gt;u18</title>
<path fill="none" stroke="black" d="M1288.38,-1241.72C1298.7,-1170.75 1331.97,-886.42 1237.8,-685.25 1188.87,-580.74 1078.29,-493.75 1022.43,-454.58"/>
<polygon fill="black" stroke="black" points="1024.45,-451.71 1014.23,-448.9 1020.47,-457.47 1024.45,-451.71"/>
</g>
<!-- u26 -->
<g id="node11" class="node">
<title>u26</title>
<ellipse fill="#ffffbb" stroke="black" stroke-width="0" cx="1363.8" cy="-1259.25" rx="33.29" ry="18"/>
<text text-anchor="middle" x="1363.8" y="-1255.55" font-family="Times,serif" font-size="14.00">Utxo</text>
</g>
<!-- u26&#45;&gt;u24 -->
<g id="edge77" class="edge">
<title>u26&#45;&gt;u24</title>
<path fill="none" stroke="black" d="M1345.84,-1244.54C1276.83,-1190.69 1027.18,-985.23 919.8,-752.25 903.87,-717.69 877.78,-450.67 870.8,-413.25 855.4,-330.73 831.7,-234.34 819.93,-187.96"/>
<polygon fill="black" stroke="black" points="823.38,-187.32 817.52,-178.5 816.6,-189.05 823.38,-187.32"/>
</g>
<!-- u26&#45;&gt;u18 -->
<g id="edge76" class="edge">
<title>u26&#45;&gt;u18</title>
<path fill="none" stroke="black" d="M1364.38,-1241.46C1366.15,-1169.44 1365.65,-881.41 1254.8,-685.25 1195.81,-580.87 1079.88,-493.28 1022.54,-454.17"/>
<polygon fill="black" stroke="black" points="1024.71,-451.41 1014.46,-448.72 1020.8,-457.21 1024.71,-451.41"/>
</g>
<!-- u27 -->
<g id="node12" class="node">
<title>u27</title>
<ellipse fill="#ffffbb" stroke="black" stroke-width="0" cx="810.8" cy="-1259.25" rx="89.08" ry="18"/>
<text text-anchor="middle" x="810.8" y="-1255.55" font-family="Times,serif" font-size="14.00">EpochResolution</text>
</g>
<!-- u27&#45;&gt;u24 -->
<g id="edge78" class="edge">
<title>u27&#45;&gt;u24</title>
<path fill="none" stroke="black" d="M813.51,-1241.55C827.22,-1154.72 887.18,-746.22 857.8,-413.25 850.51,-330.64 830.08,-234.61 819.43,-188.2"/>
<polygon fill="black" stroke="black" points="822.84,-187.42 817.17,-178.47 816.03,-189 822.84,-187.42"/>
</g>
<!-- u28&#45;&gt;u0 -->
<g id="edge79" class="edge">
<title>u28&#45;&gt;u0</title>
<path fill="none" stroke="black" d="M585.46,-969.87C567.45,-923.26 515.75,-789.51 493.35,-731.56"/>
<polygon fill="black" stroke="black" points="496.7,-730.51 489.83,-722.45 490.17,-733.04 496.7,-730.51"/>
</g>
<!-- u28&#45;&gt;u13 -->
<g id="edge80" class="edge">
<title>u28&#45;&gt;u13</title>
<path fill="none" stroke="black" d="M601.42,-970.28C629.46,-923.78 711.25,-788.1 745.94,-730.55"/>
<polygon fill="black" stroke="black" points="748.9,-732.42 751.07,-722.05 742.91,-728.8 748.9,-732.42"/>
</g>
<!-- u28&#45;&gt;u19 -->
<g id="edge82" class="edge">
<title>u28&#45;&gt;u19</title>
<path fill="none" stroke="black" d="M614.81,-974.85C701.93,-931.67 1012.18,-777.91 1121.96,-723.5"/>
<polygon fill="black" stroke="black" points="1123.48,-726.65 1130.88,-719.08 1120.37,-720.38 1123.48,-726.65"/>
</g>
<!-- u28&#45;&gt;u24 -->
<g id="edge84" class="edge">
<title>u28&#45;&gt;u24</title>
<path fill="none" stroke="black" d="M591.97,-969.42C593.04,-886.34 599.83,-519.71 637.8,-413.25 671.38,-319.09 749.41,-227.37 788.94,-184.86"/>
<polygon fill="black" stroke="black" points="791.42,-187.33 795.72,-177.65 786.32,-182.53 791.42,-187.33"/>
</g>
<!-- u28&#45;&gt;u29 -->
<g id="edge85" class="edge">
<title>u28&#45;&gt;u29</title>
<path fill="none" stroke="black" d="M595.15,-969.37C610.79,-890.6 676.65,-558.88 696.26,-460.11"/>
<polygon fill="black" stroke="black" points="699.66,-460.98 698.18,-450.49 692.79,-459.62 699.66,-460.98"/>
</g>
<!-- u28&#45;&gt;u18 -->
<g id="edge81" class="edge">
<title>u28&#45;&gt;u18</title>
<path fill="none" stroke="black" d="M622.18,-981.27C706.62,-965.59 944.12,-908.69 1038.8,-752.25 1096.49,-656.93 1034.9,-517.43 1004.13,-459.27"/>
<polygon fill="black" stroke="black" points="1007.34,-457.85 999.5,-450.72 1001.18,-461.18 1007.34,-457.85"/>
</g>
<!-- u23 -->
<g id="node31" class="node">
<title>u23</title>
<ellipse fill="#bbffff" stroke="black" stroke-width="0" cx="980.8" cy="-703.25" rx="49.29" ry="18"/>
<text text-anchor="middle" x="980.8" y="-699.55" font-family="Times,serif" font-size="14.00">Formats</text>
</g>
<!-- u28&#45;&gt;u23 -->
<g id="edge83" class="edge">
<title>u28&#45;&gt;u23</title>
<path fill="none" stroke="black" d="M612.13,-973.4C665.47,-939.39 813.21,-843.43 927.8,-752.25 937.41,-744.6 947.52,-735.69 956.3,-727.64"/>
<polygon fill="black" stroke="black" points="958.51,-730.35 963.45,-720.98 953.75,-725.22 958.51,-730.35"/>
</g>
<!-- u16 -->
<g id="node15" class="node">
<title>u16</title>
<ellipse fill="#bbbbff" stroke="black" stroke-width="0" cx="601.8" cy="-1531.25" rx="88.28" ry="18"/>
<text text-anchor="middle" x="601.8" y="-1527.55" font-family="Times,serif" font-size="14.00">FoldLedgerState</text>
</g>
<!-- u16&#45;&gt;u13 -->
<g id="edge58" class="edge">
<title>u16&#45;&gt;u13</title>
<path fill="none" stroke="black" d="M605.06,-1513.38C625.09,-1409.99 731.19,-862.27 756.41,-732.05"/>
<polygon fill="black" stroke="black" points="759.78,-733.07 758.24,-722.59 752.91,-731.74 759.78,-733.07"/>
</g>
<!-- u16&#45;&gt;u15 -->
<g id="edge59" class="edge">
<title>u16&#45;&gt;u15</title>
<path fill="none" stroke="black" d="M632.23,-1514.57C722,-1468.32 985.64,-1332.47 1086.2,-1280.65"/>
<polygon fill="black" stroke="black" points="1087.62,-1283.86 1094.91,-1276.17 1084.41,-1277.64 1087.62,-1283.86"/>
</g>
<!-- u16&#45;&gt;u19 -->
<g id="edge61" class="edge">
<title>u16&#45;&gt;u19</title>
<path fill="none" stroke="black" d="M637.22,-1514.85C709.19,-1481.81 873.33,-1397.26 963.8,-1277.25 1098.67,-1098.35 1145.48,-820.52 1157.4,-732.2"/>
<polygon fill="black" stroke="black" points="1160.84,-732.89 1158.66,-722.53 1153.9,-731.99 1160.84,-732.89"/>
</g>
<!-- u16&#45;&gt;u24 -->
<g id="edge62" class="edge">
<title>u16&#45;&gt;u24</title>
<path fill="none" stroke="black" d="M604.37,-1513.43C610.47,-1472.9 625.79,-1366.59 632.8,-1277.25 642.84,-1149.13 642.8,-1116.77 642.8,-988.25 642.8,-988.25 642.8,-988.25 642.8,-702.25 642.8,-573.73 614.91,-536.06 652.8,-413.25 681.49,-320.26 753.81,-227.94 790.59,-185.07"/>
<polygon fill="black" stroke="black" points="793.17,-187.43 797.09,-177.59 787.88,-182.84 793.17,-187.43"/>
</g>
<!-- u16&#45;&gt;u25 -->
<g id="edge63" class="edge">
<title>u16&#45;&gt;u25</title>
<path fill="none" stroke="black" d="M640.04,-1515.16C761.74,-1467.12 1138.78,-1318.29 1252.8,-1273.28"/>
<polygon fill="black" stroke="black" points="1253.87,-1276.62 1261.89,-1269.69 1251.3,-1270.11 1253.87,-1276.62"/>
</g>
<!-- u16&#45;&gt;u28 -->
<g id="edge64" class="edge">
<title>u16&#45;&gt;u28</title>
<path fill="none" stroke="black" d="M595.69,-1513.38C581.51,-1473.17 546.64,-1368.27 534.8,-1277.25 522.12,-1179.9 560.51,-1066.03 580.51,-1015.17"/>
<polygon fill="black" stroke="black" points="583.65,-1016.73 584.13,-1006.15 577.16,-1014.12 583.65,-1016.73"/>
</g>
<!-- u16&#45;&gt;u29 -->
<g id="edge65" class="edge">
<title>u16&#45;&gt;u29</title>
<path fill="none" stroke="black" d="M605.54,-1513.48C614.42,-1473.06 636.81,-1366.99 647.8,-1277.25 686.89,-957.95 698.61,-567.08 701.18,-460.32"/>
<polygon fill="black" stroke="black" points="704.68,-460.59 701.41,-450.51 697.68,-460.43 704.68,-460.59"/>
</g>
<!-- u16&#45;&gt;u18 -->
<g id="edge60" class="edge">
<title>u16&#45;&gt;u18</title>
<path fill="none" stroke="black" d="M640.27,-1515.1C714.97,-1483.47 878.84,-1402.76 953.8,-1277.25 971.49,-1247.63 986.24,-1002.93 993.8,-969.25 1022.24,-842.4 1082.46,-813.91 1063.8,-685.25 1051.58,-601.03 1017.6,-505.83 999.88,-459.92"/>
<polygon fill="black" stroke="black" points="1003.2,-458.8 996.29,-450.76 996.68,-461.35 1003.2,-458.8"/>
</g>
<!-- u17 -->
<g id="node16" class="node">
<title>u17</title>
<ellipse fill="#bbbbff" stroke="black" stroke-width="0" cx="402.8" cy="-1531.25" rx="92.88" ry="18"/>
<text text-anchor="middle" x="402.8" y="-1527.55" font-family="Times,serif" font-size="14.00">SlotNoChainPoint</text>
</g>
<!-- u17&#45;&gt;u28 -->
<g id="edge66" class="edge">
<title>u17&#45;&gt;u28</title>
<path fill="none" stroke="black" d="M408.66,-1513.44C435.72,-1435.83 548.66,-1111.94 582.3,-1015.48"/>
<polygon fill="black" stroke="black" points="585.51,-1016.9 585.5,-1006.3 578.9,-1014.59 585.51,-1016.9"/>
</g>
<!-- u1 -->
<g id="node17" class="node">
<title>u1</title>
<ellipse fill="#ffbbbb" stroke="black" stroke-width="0" cx="1339.8" cy="-1531.25" rx="55.79" ry="18"/>
<text text-anchor="middle" x="1339.8" y="-1527.55" font-family="Times,serif" font-size="14.00">MintBurn</text>
</g>
<!-- u1&#45;&gt;u25 -->
<g id="edge3" class="edge">
<title>u1&#45;&gt;u25</title>
<path fill="none" stroke="black" d="M1336.42,-1513.36C1327.36,-1468.08 1302.47,-1343.64 1291.32,-1287.9"/>
<polygon fill="black" stroke="black" points="1294.79,-1287.4 1289.4,-1278.28 1287.93,-1288.77 1294.79,-1287.4"/>
</g>
<!-- u1&#45;&gt;u28 -->
<g id="edge4" class="edge">
<title>u1&#45;&gt;u28</title>
<path fill="none" stroke="black" d="M1320.13,-1514.49C1264.82,-1470.3 1102.88,-1341.87 963.8,-1241.25 838.55,-1150.65 684.62,-1048.92 621.22,-1007.43"/>
<polygon fill="black" stroke="black" points="623.39,-1004.66 613.1,-1002.12 619.56,-1010.52 623.39,-1004.66"/>
</g>
<!-- u2 -->
<g id="node18" class="node">
<title>u2</title>
<ellipse fill="#ffbbbb" stroke="black" stroke-width="0" cx="1145.8" cy="-1815.25" rx="45.49" ry="18"/>
<text text-anchor="middle" x="1145.8" y="-1811.55" font-family="Times,serif" font-size="14.00">Mamba</text>
</g>
<!-- u2&#45;&gt;u14 -->
<g id="edge10" class="edge">
<title>u2&#45;&gt;u14</title>
<path fill="none" stroke="black" d="M1174.9,-1801.59C1276.96,-1757.17 1619.27,-1608.2 1746.05,-1553.03"/>
<polygon fill="black" stroke="black" points="1747.41,-1556.26 1755.18,-1549.06 1744.62,-1549.84 1747.41,-1556.26"/>
</g>
<!-- u2&#45;&gt;u15 -->
<g id="edge11" class="edge">
<title>u2&#45;&gt;u15</title>
<path fill="none" stroke="black" d="M1179.75,-1803.45C1186.39,-1801.37 1193.31,-1799.22 1199.8,-1797.25 1528.57,-1697.44 1735.74,-1855.2 1941.8,-1580.25 1961.79,-1553.58 1961.69,-1532 1941.8,-1505.25 1850.61,-1382.67 1375.28,-1298.4 1195.12,-1270.42"/>
<polygon fill="black" stroke="black" points="1195.85,-1266.99 1185.43,-1268.93 1194.79,-1273.91 1195.85,-1266.99"/>
</g>
<!-- u2&#45;&gt;u19 -->
<g id="edge12" class="edge">
<title>u2&#45;&gt;u19</title>
<path fill="none" stroke="black" d="M1179.74,-1803.4C1186.38,-1801.33 1193.3,-1799.2 1199.8,-1797.25 1538.81,-1695.89 1752.4,-1862.5 1965.8,-1580.25 2247.43,-1207.76 1403.72,-809.95 1202.73,-722.08"/>
<polygon fill="black" stroke="black" points="1204.25,-718.92 1193.68,-718.15 1201.46,-725.34 1204.25,-718.92"/>
</g>
<!-- u2&#45;&gt;u24 -->
<g id="edge13" class="edge">
<title>u2&#45;&gt;u24</title>
<path fill="none" stroke="black" d="M1111.85,-1803.42C1104.91,-1801.3 1097.63,-1799.15 1090.8,-1797.25 702.65,-1689.51 478.43,-1881.32 210.8,-1580.25 115.57,-1473.13 170.8,-1403.58 170.8,-1260.25 170.8,-1260.25 170.8,-1260.25 170.8,-702.25 170.8,-567.05 175.87,-514.22 265.8,-413.25 398.83,-263.87 638.24,-196.5 750.94,-171.97"/>
<polygon fill="black" stroke="black" points="751.57,-175.41 760.62,-169.9 750.11,-168.57 751.57,-175.41"/>
</g>
<!-- u2&#45;&gt;u25 -->
<g id="edge14" class="edge">
<title>u2&#45;&gt;u25</title>
<path fill="none" stroke="black" d="M1179.75,-1803.42C1186.39,-1801.35 1193.3,-1799.21 1199.8,-1797.25 1533.69,-1696.67 1744.07,-1858.85 1953.8,-1580.25 1973.84,-1553.62 1972.95,-1532.53 1953.8,-1505.25 1782.17,-1260.89 1597.56,-1391.8 1321.8,-1277.25 1320.24,-1276.61 1318.65,-1275.93 1317.06,-1275.23"/>
<polygon fill="black" stroke="black" points="1318.52,-1272.05 1307.96,-1271.11 1315.62,-1278.43 1318.52,-1272.05"/>
</g>
<!-- u2&#45;&gt;u27 -->
<g id="edge15" class="edge">
<title>u2&#45;&gt;u27</title>
<path fill="none" stroke="black" d="M1111.52,-1803.47C1104.67,-1801.37 1097.51,-1799.21 1090.8,-1797.25 739.97,-1695.06 519.47,-1870.74 297.8,-1580.25 168.8,-1411.21 565.17,-1309.32 736.24,-1274.16"/>
<polygon fill="black" stroke="black" points="736.83,-1277.61 745.93,-1272.19 735.44,-1270.75 736.83,-1277.61"/>
</g>
<!-- u2&#45;&gt;u28 -->
<g id="edge16" class="edge">
<title>u2&#45;&gt;u28</title>
<path fill="none" stroke="black" d="M1111.54,-1803.42C1104.68,-1801.32 1097.52,-1799.18 1090.8,-1797.25 727.12,-1693.15 518.75,-1863.3 267.8,-1580.25 167.08,-1466.65 155.29,-1375.71 225.8,-1241.25 296.49,-1106.45 475.21,-1029.27 553.77,-1000.87"/>
<polygon fill="black" stroke="black" points="554.92,-1004.18 563.18,-997.54 552.58,-997.58 554.92,-1004.18"/>
</g>
<!-- u2&#45;&gt;u1 -->
<g id="edge5" class="edge">
<title>u2&#45;&gt;u1</title>
<path fill="none" stroke="black" d="M1157.06,-1797.87C1189.41,-1750.85 1282.74,-1615.19 1322.03,-1558.08"/>
<polygon fill="black" stroke="black" points="1324.85,-1560.15 1327.64,-1549.93 1319.09,-1556.18 1324.85,-1560.15"/>
</g>
<!-- u3 -->
<g id="node19" class="node">
<title>u3</title>
<ellipse fill="#ffbbbb" stroke="black" stroke-width="0" cx="818.8" cy="-1531.25" rx="104.78" ry="18"/>
<text text-anchor="middle" x="818.8" y="-1527.55" font-family="Times,serif" font-size="14.00">EpochStakepoolSize</text>
</g>
<!-- u2&#45;&gt;u3 -->
<g id="edge6" class="edge">
<title>u2&#45;&gt;u3</title>
<path fill="none" stroke="black" d="M1128.21,-1799.09C1074.49,-1752.76 912.19,-1612.8 846.67,-1556.29"/>
<polygon fill="black" stroke="black" points="849.1,-1553.76 839.24,-1549.88 844.52,-1559.06 849.1,-1553.76"/>
</g>
<!-- u5 -->
<g id="node21" class="node">
<title>u5</title>
<ellipse fill="#ffbbbb" stroke="black" stroke-width="0" cx="983.8" cy="-1531.25" rx="42.49" ry="18"/>
<text text-anchor="middle" x="983.8" y="-1527.55" font-family="Times,serif" font-size="14.00">Datum</text>
</g>
<!-- u2&#45;&gt;u5 -->
<g id="edge7" class="edge">
<title>u2&#45;&gt;u5</title>
<path fill="none" stroke="black" d="M1136.39,-1797.87C1109.43,-1750.95 1031.76,-1615.75 998.84,-1558.44"/>
<polygon fill="black" stroke="black" points="1002,-1556.92 993.99,-1549.99 995.93,-1560.41 1002,-1556.92"/>
</g>
<!-- u8 -->
<g id="node24" class="node">
<title>u8</title>
<ellipse fill="#ffbbbb" stroke="black" stroke-width="0" cx="1232.8" cy="-1531.25" rx="33.29" ry="18"/>
<text text-anchor="middle" x="1232.8" y="-1527.55" font-family="Times,serif" font-size="14.00">Utxo</text>
</g>
<!-- u2&#45;&gt;u8 -->
<g id="edge8" class="edge">
<title>u2&#45;&gt;u8</title>
<path fill="none" stroke="black" d="M1150.98,-1797.46C1165.45,-1750.53 1206.43,-1617.71 1224.29,-1559.81"/>
<polygon fill="black" stroke="black" points="1227.59,-1561 1227.2,-1550.41 1220.9,-1558.93 1227.59,-1561"/>
</g>
<!-- u12 -->
<g id="node28" class="node">
<title>u12</title>
<ellipse fill="#ffbbbb" stroke="black" stroke-width="0" cx="1112.8" cy="-1531.25" rx="68.79" ry="18"/>
<text text-anchor="middle" x="1112.8" y="-1527.55" font-family="Times,serif" font-size="14.00">EpochNonce</text>
</g>
<!-- u2&#45;&gt;u12 -->
<g id="edge9" class="edge">
<title>u2&#45;&gt;u12</title>
<path fill="none" stroke="black" d="M1143.83,-1797.46C1138.35,-1750.63 1122.86,-1618.27 1116.06,-1560.17"/>
<polygon fill="black" stroke="black" points="1119.57,-1559.99 1114.93,-1550.46 1112.61,-1560.8 1119.57,-1559.99"/>
</g>
<!-- u3&#45;&gt;u15 -->
<g id="edge17" class="edge">
<title>u3&#45;&gt;u15</title>
<path fill="none" stroke="black" d="M837.54,-1513.77C889.9,-1467.72 1037.89,-1337.57 1098.94,-1283.87"/>
<polygon fill="black" stroke="black" points="1100.96,-1286.75 1106.16,-1277.52 1096.34,-1281.5 1100.96,-1286.75"/>
</g>
<!-- u3&#45;&gt;u25 -->
<g id="edge18" class="edge">
<title>u3&#45;&gt;u25</title>
<path fill="none" stroke="black" d="M846.96,-1513.97C929.79,-1466.08 1172.06,-1326.01 1256.42,-1277.23"/>
<polygon fill="black" stroke="black" points="1258.14,-1280.28 1265.05,-1272.25 1254.64,-1274.22 1258.14,-1280.28"/>
</g>
<!-- u3&#45;&gt;u27 -->
<g id="edge19" class="edge">
<title>u3&#45;&gt;u27</title>
<path fill="none" stroke="black" d="M818.3,-1513.36C816.96,-1468.19 813.28,-1344.23 811.63,-1288.29"/>
<polygon fill="black" stroke="black" points="815.14,-1288.54 811.34,-1278.65 808.14,-1288.75 815.14,-1288.54"/>
</g>
<!-- u3&#45;&gt;u28 -->
<g id="edge20" class="edge">
<title>u3&#45;&gt;u28</title>
<path fill="none" stroke="black" d="M811.72,-1513.38C794.69,-1472.74 750.05,-1366.2 712.8,-1277.25 672.36,-1180.7 624.34,-1066 602.99,-1014.99"/>
<polygon fill="black" stroke="black" points="606.29,-1013.82 599.2,-1005.95 599.83,-1016.52 606.29,-1013.82"/>
</g>
<!-- u4 -->
<g id="node20" class="node">
<title>u4</title>
<ellipse fill="#ffbbbb" stroke="black" stroke-width="0" cx="1443.8" cy="-1815.25" rx="85.29" ry="18"/>
<text text-anchor="middle" x="1443.8" y="-1811.55" font-family="Times,serif" font-size="14.00">AddressBalance</text>
</g>
<!-- u4&#45;&gt;u24 -->
<g id="edge22" class="edge">
<title>u4&#45;&gt;u24</title>
<path fill="none" stroke="black" d="M1381.84,-1802.89C1143.35,-1759 297.03,-1601.96 278.8,-1580.25 187.28,-1471.33 270.8,-1402.52 270.8,-1260.25 270.8,-1260.25 270.8,-1260.25 270.8,-702.25 270.8,-421.7 638.38,-235.65 768.12,-178.72"/>
<polygon fill="black" stroke="black" points="769.31,-182.02 777.09,-174.83 766.52,-175.6 769.31,-182.02"/>
</g>
<!-- u4&#45;&gt;u25 -->
<g id="edge23" class="edge">
<title>u4&#45;&gt;u25</title>
<path fill="none" stroke="black" d="M1493.15,-1800.59C1616.18,-1765.42 1930.72,-1668.39 1988.8,-1580.25 2007.14,-1552.42 2008.18,-1532.37 1988.8,-1505.25 1806.59,-1250.41 1612.12,-1394.99 1321.8,-1277.25 1320.23,-1276.62 1318.64,-1275.95 1317.04,-1275.27"/>
<polygon fill="black" stroke="black" points="1318.5,-1272.08 1307.94,-1271.16 1315.62,-1278.46 1318.5,-1272.08"/>
</g>
<!-- u4&#45;&gt;u26 -->
<g id="edge24" class="edge">
<title>u4&#45;&gt;u26</title>
<path fill="none" stroke="black" d="M1497.43,-1801.26C1631.11,-1767.68 1972.98,-1674.04 2036.8,-1580.25 2055.55,-1552.69 2055.91,-1532.56 2036.8,-1505.25 1887.57,-1292.12 1532.65,-1263.72 1408,-1260.46"/>
<polygon fill="black" stroke="black" points="1408.26,-1256.96 1398.18,-1260.25 1408.11,-1263.96 1408.26,-1256.96"/>
</g>
<!-- u4&#45;&gt;u28 -->
<g id="edge25" class="edge">
<title>u4&#45;&gt;u28</title>
<path fill="none" stroke="black" d="M1382.19,-1802.89C1145.07,-1759.03 303.64,-1602.07 285.8,-1580.25 238.09,-1521.95 253.71,-1309.41 285.8,-1241.25 343.06,-1119.6 490.72,-1036.45 557.77,-1003.75"/>
<polygon fill="black" stroke="black" points="558.94,-1007.07 566.45,-999.6 555.92,-1000.76 558.94,-1007.07"/>
</g>
<!-- u4&#45;&gt;u18 -->
<g id="edge21" class="edge">
<title>u4&#45;&gt;u18</title>
<path fill="none" stroke="black" d="M1499.75,-1801.68C1639.69,-1769 1998.57,-1677.14 2066.8,-1580.25 2148.69,-1463.96 2071.8,-1402.49 2071.8,-1260.25 2071.8,-1260.25 2071.8,-1260.25 2071.8,-986.25 2071.8,-852.46 2150.76,-789.42 2066.8,-685.25 1937.59,-524.97 1269.99,-455.79 1055.34,-437.47"/>
<polygon fill="black" stroke="black" points="1055.73,-433.99 1045.47,-436.64 1055.14,-440.97 1055.73,-433.99"/>
</g>
<!-- u5&#45;&gt;u25 -->
<g id="edge26" class="edge">
<title>u5&#45;&gt;u25</title>
<path fill="none" stroke="black" d="M1000.9,-1514.96C1052.05,-1469.23 1203.94,-1333.44 1262.45,-1281.12"/>
<polygon fill="black" stroke="black" points="1264.45,-1284.03 1269.57,-1274.76 1259.78,-1278.82 1264.45,-1284.03"/>
</g>
<!-- u5&#45;&gt;u28 -->
<g id="edge27" class="edge">
<title>u5&#45;&gt;u28</title>
<path fill="none" stroke="black" d="M983.08,-1513.46C980.38,-1466.6 967.62,-1331.92 908.8,-1241.25 834.19,-1126.27 689.75,-1039.87 624.82,-1005.06"/>
<polygon fill="black" stroke="black" points="626.56,-1002.02 616.08,-1000.44 623.28,-1008.21 626.56,-1002.02"/>
</g>
<!-- u6 -->
<g id="node22" class="node">
<title>u6</title>
<ellipse fill="#ffbbbb" stroke="black" stroke-width="0" cx="884.8" cy="-1815.25" rx="79.09" ry="18"/>
<text text-anchor="middle" x="884.8" y="-1811.55" font-family="Times,serif" font-size="14.00">AddressDatum</text>
</g>
<!-- u6&#45;&gt;u25 -->
<g id="edge29" class="edge">
<title>u6&#45;&gt;u25</title>
<path fill="none" stroke="black" d="M931.94,-1800.83C1051.8,-1765.67 1362.71,-1667.53 1419.8,-1580.25 1487.08,-1477.39 1361.93,-1335.16 1308.4,-1281.71"/>
<polygon fill="black" stroke="black" points="1311.13,-1279.48 1301.54,-1274.97 1306.22,-1284.48 1311.13,-1279.48"/>
</g>
<!-- u6&#45;&gt;u28 -->
<g id="edge30" class="edge">
<title>u6&#45;&gt;u28</title>
<path fill="none" stroke="black" d="M833.12,-1801.63C672.18,-1761.81 188.16,-1638.1 145.8,-1580.25 101.29,-1519.47 107.88,-1306.35 145.8,-1241.25 235.7,-1086.89 458.7,-1019.07 550.9,-996.97"/>
<polygon fill="black" stroke="black" points="551.57,-1000.4 560.51,-994.72 549.98,-993.59 551.57,-1000.4"/>
</g>
<!-- u6&#45;&gt;u5 -->
<g id="edge28" class="edge">
<title>u6&#45;&gt;u5</title>
<path fill="none" stroke="black" d="M890.69,-1797.46C907.17,-1750.53 953.79,-1617.71 974.12,-1559.81"/>
<polygon fill="black" stroke="black" points="977.42,-1560.98 977.43,-1550.39 970.81,-1558.67 977.42,-1560.98"/>
</g>
<!-- u7 -->
<g id="node23" class="node">
<title>u7</title>
<ellipse fill="#ffbbbb" stroke="black" stroke-width="0" cx="1592.8" cy="-1815.25" rx="46.29" ry="18"/>
<text text-anchor="middle" x="1592.8" y="-1811.55" font-family="Times,serif" font-size="14.00">Deposit</text>
</g>
<!-- u7&#45;&gt;u25 -->
<g id="edge32" class="edge">
<title>u7&#45;&gt;u25</title>
<path fill="none" stroke="black" d="M1630.26,-1804.72C1750.43,-1772.36 2112.07,-1659.99 2000.8,-1505.25 1814.95,-1246.8 1617.12,-1396.09 1321.8,-1277.25 1320.23,-1276.62 1318.64,-1275.96 1317.04,-1275.28"/>
<polygon fill="black" stroke="black" points="1318.49,-1272.09 1307.93,-1271.18 1315.62,-1278.47 1318.49,-1272.09"/>
</g>
<!-- u7&#45;&gt;u26 -->
<g id="edge33" class="edge">
<title>u7&#45;&gt;u26</title>
<path fill="none" stroke="black" d="M1634.36,-1807.33C1776.4,-1781.9 2226.65,-1685.57 2096.8,-1505.25 2012.14,-1387.7 1548.8,-1294.15 1405.83,-1267.74"/>
<polygon fill="black" stroke="black" points="1406.5,-1264.31 1396.03,-1265.95 1405.24,-1271.19 1406.5,-1264.31"/>
</g>
<!-- u7&#45;&gt;u28 -->
<g id="edge34" class="edge">
<title>u7&#45;&gt;u28</title>
<path fill="none" stroke="black" d="M1558.95,-1803.06C1552,-1800.96 1544.69,-1798.92 1537.8,-1797.25 1265.84,-1731.71 477.75,-1794.43 297.8,-1580.25 216.18,-1483.11 494.94,-1112.06 572.38,-1012.8"/>
<polygon fill="black" stroke="black" points="575.08,-1015.03 578.49,-1005 569.57,-1010.71 575.08,-1015.03"/>
</g>
<!-- u7&#45;&gt;u18 -->
<g id="edge31" class="edge">
<title>u7&#45;&gt;u18</title>
<path fill="none" stroke="black" d="M1636.96,-1810.36C1743.25,-1798.36 2012.9,-1751.58 2126.8,-1580.25 2205.54,-1461.8 2131.8,-1402.49 2131.8,-1260.25 2131.8,-1260.25 2131.8,-1260.25 2131.8,-986.25 2131.8,-851.12 2180.25,-784.74 2088.8,-685.25 1946.62,-530.57 1270.86,-457.51 1055.14,-437.86"/>
<polygon fill="black" stroke="black" points="1055.49,-434.38 1045.22,-436.97 1054.86,-441.35 1055.49,-434.38"/>
</g>
<!-- u8&#45;&gt;u15 -->
<g id="edge35" class="edge">
<title>u8&#45;&gt;u15</title>
<path fill="none" stroke="black" d="M1226.26,-1513.77C1208.39,-1468.68 1158.56,-1342.94 1136.52,-1287.31"/>
<polygon fill="black" stroke="black" points="1139.87,-1286.28 1132.94,-1278.27 1133.37,-1288.86 1139.87,-1286.28"/>
</g>
<!-- u8&#45;&gt;u19 -->
<g id="edge37" class="edge">
<title>u8&#45;&gt;u19</title>
<path fill="none" stroke="black" d="M1231.32,-1513.38C1222.32,-1410.09 1174.67,-863.37 1163.25,-732.44"/>
<polygon fill="black" stroke="black" points="1166.75,-732.27 1162.4,-722.61 1159.78,-732.87 1166.75,-732.27"/>
</g>
<!-- u8&#45;&gt;u24 -->
<g id="edge38" class="edge">
<title>u8&#45;&gt;u24</title>
<path fill="none" stroke="black" d="M1218.98,-1515.17C1185.32,-1477.68 1098.18,-1376.13 1048.8,-1277.25 849.76,-878.72 818.3,-319.02 813.59,-188.31"/>
<polygon fill="black" stroke="black" points="817.1,-188.41 813.26,-178.53 810.1,-188.64 817.1,-188.41"/>
</g>
<!-- u8&#45;&gt;u25 -->
<g id="edge39" class="edge">
<title>u8&#45;&gt;u25</title>
<path fill="none" stroke="black" d="M1236.11,-1513.36C1245,-1468.08 1269.43,-1343.64 1280.37,-1287.9"/>
<polygon fill="black" stroke="black" points="1283.77,-1288.76 1282.26,-1278.28 1276.9,-1287.42 1283.77,-1288.76"/>
</g>
<!-- u8&#45;&gt;u26 -->
<g id="edge40" class="edge">
<title>u8&#45;&gt;u26</title>
<path fill="none" stroke="black" d="M1240.6,-1514.17C1262.39,-1469.26 1324.06,-1342.15 1350.97,-1286.68"/>
<polygon fill="black" stroke="black" points="1353.99,-1288.48 1355.21,-1277.95 1347.69,-1285.42 1353.99,-1288.48"/>
</g>
<!-- u8&#45;&gt;u28 -->
<g id="edge41" class="edge">
<title>u8&#45;&gt;u28</title>
<path fill="none" stroke="black" d="M1219.09,-1514.97C1178.83,-1470.45 1056.56,-1337.88 942.8,-1241.25 830.26,-1145.67 683.61,-1047.72 621.58,-1007.38"/>
<polygon fill="black" stroke="black" points="623.59,-1004.51 613.29,-1002.01 619.78,-1010.39 623.59,-1004.51"/>
</g>
<!-- u8&#45;&gt;u18 -->
<g id="edge36" class="edge">
<title>u8&#45;&gt;u18</title>
<path fill="none" stroke="black" d="M1233.05,-1513.49C1234.72,-1398.1 1243.77,-725.08 1227.8,-685.25 1185.68,-580.24 1077.3,-493.49 1022.13,-454.47"/>
<polygon fill="black" stroke="black" points="1024.24,-451.67 1014.04,-448.83 1020.24,-457.42 1024.24,-451.67"/>
</g>
<!-- u9 -->
<g id="node25" class="node">
<title>u9</title>
<ellipse fill="#ffbbbb" stroke="black" stroke-width="0" cx="1031.8" cy="-1815.25" rx="50.09" ry="18"/>
<text text-anchor="middle" x="1031.8" y="-1811.55" font-family="Times,serif" font-size="14.00">ScriptTx</text>
</g>
<!-- u9&#45;&gt;u25 -->
<g id="edge42" class="edge">
<title>u9&#45;&gt;u25</title>
<path fill="none" stroke="black" d="M1063.05,-1801.22C1150.98,-1763.85 1396.92,-1654.27 1439.8,-1580.25 1502.86,-1471.38 1367.51,-1332.73 1310.01,-1280.97"/>
<polygon fill="black" stroke="black" points="1312.43,-1278.44 1302.63,-1274.43 1307.79,-1283.68 1312.43,-1278.44"/>
</g>
<!-- u9&#45;&gt;u28 -->
<g id="edge43" class="edge">
<title>u9&#45;&gt;u28</title>
<path fill="none" stroke="black" d="M994.36,-1803.4C987.21,-1801.34 979.77,-1799.22 972.8,-1797.25 623.58,-1698.8 405.63,-1868.9 185.8,-1580.25 94.51,-1460.39 112.67,-1372.98 185.8,-1241.25 265.95,-1096.85 466.56,-1024.13 552.12,-998.86"/>
<polygon fill="black" stroke="black" points="553.08,-1002.23 561.72,-996.09 551.14,-995.5 553.08,-1002.23"/>
</g>
<!-- u10 -->
<g id="node26" class="node">
<title>u10</title>
<ellipse fill="#ffbbbb" stroke="black" stroke-width="0" cx="1274.8" cy="-1815.25" rx="65.79" ry="18"/>
<text text-anchor="middle" x="1274.8" y="-1811.55" font-family="Times,serif" font-size="14.00">BlockBasics</text>
</g>
<!-- u10&#45;&gt;u25 -->
<g id="edge44" class="edge">
<title>u10&#45;&gt;u25</title>
<path fill="none" stroke="black" d="M1320.46,-1802.34C1469.8,-1762.95 1936.47,-1636.21 1976.8,-1580.25 1996.29,-1553.21 1996.11,-1532.42 1976.8,-1505.25 1798.22,-1254.01 1607.12,-1393.9 1321.8,-1277.25 1320.24,-1276.62 1318.65,-1275.95 1317.05,-1275.25"/>
<polygon fill="black" stroke="black" points="1318.5,-1272.07 1307.95,-1271.14 1315.62,-1278.45 1318.5,-1272.07"/>
</g>
<!-- u10&#45;&gt;u28 -->
<g id="edge45" class="edge">
<title>u10&#45;&gt;u28</title>
<path fill="none" stroke="black" d="M1226.23,-1803.24C1022.37,-1756.98 246.29,-1580.88 245.8,-1580.25 222.3,-1550.81 228.75,-1274.84 245.8,-1241.25 312.09,-1110.65 480.97,-1031.32 555.5,-1001.63"/>
<polygon fill="black" stroke="black" points="556.34,-1005.06 564.38,-998.15 553.79,-998.54 556.34,-1005.06"/>
</g>
<!-- u11 -->
<g id="node27" class="node">
<title>u11</title>
<ellipse fill="#ffbbbb" stroke="black" stroke-width="0" cx="750.8" cy="-1815.25" rx="37.09" ry="18"/>
<text text-anchor="middle" x="750.8" y="-1811.55" font-family="Times,serif" font-size="14.00">NoOp</text>
</g>
<!-- u11&#45;&gt;u25 -->
<g id="edge46" class="edge">
<title>u11&#45;&gt;u25</title>
<path fill="none" stroke="black" d="M779,-1803.77C784.87,-1801.61 791.03,-1799.35 796.8,-1797.25 1066.47,-1699.3 1239.49,-1814.77 1404.8,-1580.25 1440.13,-1530.13 1340.59,-1351.96 1301.13,-1285.49"/>
<polygon fill="black" stroke="black" points="1304.26,-1283.9 1296.12,-1277.12 1298.25,-1287.5 1304.26,-1283.9"/>
</g>
<!-- u11&#45;&gt;u28 -->
<g id="edge47" class="edge">
<title>u11&#45;&gt;u28</title>
<path fill="none" stroke="black" d="M714.16,-1813.78C602.53,-1810.12 265.76,-1782.11 125.8,-1580.25 39.94,-1456.44 48.76,-1370.74 125.8,-1241.25 220.68,-1081.77 455.1,-1016.57 550.45,-996.07"/>
<polygon fill="black" stroke="black" points="551.08,-999.51 560.16,-994.04 549.65,-992.66 551.08,-999.51"/>
</g>
<!-- u12&#45;&gt;u15 -->
<g id="edge48" class="edge">
<title>u12&#45;&gt;u15</title>
<path fill="none" stroke="black" d="M1113.61,-1513.36C1115.78,-1468.19 1121.75,-1344.23 1124.45,-1288.29"/>
<polygon fill="black" stroke="black" points="1127.93,-1288.81 1124.91,-1278.65 1120.93,-1288.47 1127.93,-1288.81"/>
</g>
<!-- u12&#45;&gt;u25 -->
<g id="edge49" class="edge">
<title>u12&#45;&gt;u25</title>
<path fill="none" stroke="black" d="M1123.36,-1513.77C1152.58,-1468.16 1234.65,-1340.08 1269.65,-1285.45"/>
<polygon fill="black" stroke="black" points="1272.54,-1287.43 1274.99,-1277.12 1266.65,-1283.65 1272.54,-1287.43"/>
</g>
<!-- u12&#45;&gt;u27 -->
<g id="edge50" class="edge">
<title>u12&#45;&gt;u27</title>
<path fill="none" stroke="black" d="M1094.81,-1514.17C1043.73,-1468.51 897.63,-1337.89 837.32,-1283.97"/>
<polygon fill="black" stroke="black" points="839.99,-1281.66 830.2,-1277.6 835.32,-1286.87 839.99,-1281.66"/>
</g>
<!-- u12&#45;&gt;u28 -->
<g id="edge51" class="edge">
<title>u12&#45;&gt;u28</title>
<path fill="none" stroke="black" d="M1104.41,-1513.56C1080.49,-1466.95 1008.12,-1332.87 922.8,-1241.25 826.37,-1137.72 684.05,-1044.69 622.27,-1006.56"/>
<polygon fill="black" stroke="black" points="624.36,-1003.74 614.01,-1001.5 620.71,-1009.71 624.36,-1003.74"/>
</g>
<!-- u18&#45;&gt;u24 -->
<g id="edge68" class="edge">
<title>u18&#45;&gt;u24</title>
<path fill="none" stroke="black" d="M977.79,-413.36C947.96,-367.61 865.45,-241.02 829.69,-186.17"/>
<polygon fill="black" stroke="black" points="832.8,-184.53 824.4,-178.06 826.93,-188.35 832.8,-184.53"/>
</g>
<!-- u22 -->
<g id="node30" class="node">
<title>u22</title>
<ellipse fill="#bbffff" stroke="black" stroke-width="0" cx="988.8" cy="-159.25" rx="50.09" ry="18"/>
<text text-anchor="middle" x="988.8" y="-155.55" font-family="Times,serif" font-size="14.00">Orphans</text>
</g>
<!-- u18&#45;&gt;u22 -->
<g id="edge67" class="edge">
<title>u18&#45;&gt;u22</title>
<path fill="none" stroke="black" d="M988.8,-412.95C988.8,-367.51 988.8,-244.41 988.8,-188.53"/>
<polygon fill="black" stroke="black" points="992.3,-188.58 988.8,-178.58 985.3,-188.58 992.3,-188.58"/>
</g>
<!-- u23&#45;&gt;u18 -->
<g id="edge71" class="edge">
<title>u23&#45;&gt;u18</title>
<path fill="none" stroke="black" d="M981.3,-685.36C982.63,-640.3 986.29,-516.82 987.95,-460.69"/>
<polygon fill="black" stroke="black" points="991.44,-461.1 988.24,-451 984.45,-460.89 991.44,-461.1"/>
</g>
</g>
</svg>
